<svg xmlns="http://www.w3.org/2000/svg" xmlns:xlink="http://www.w3.org/1999/xlink" width="859" zoomAndPan="magnify" viewBox="0 0 644.25 463.5" height="618" preserveAspectRatio="xMidYMid meet" version="1.0"><defs><g/><clipPath id="371d05bdbc"><path d="M 140.332031 0.0195312 L 311.882812 0.0195312 L 311.882812 171.570312 L 140.332031 171.570312 Z M 140.332031 0.0195312 " clip-rule="nonzero"/></clipPath><clipPath id="0a42ae851f"><path d="M 54.660156 244.871094 L 226.210938 244.871094 L 226.210938 416.421875 L 54.660156 416.421875 Z M 54.660156 244.871094 " clip-rule="nonzero"/></clipPath><clipPath id="fd34eaebca"><path d="M 417.816406 109.34375 L 589.367188 109.34375 L 589.367188 280.894531 L 417.816406 280.894531 Z M 417.816406 109.34375 " clip-rule="nonzero"/></clipPath><clipPath id="c57e853846"><path d="M 78 9 L 128 9 L 128 102 L 78 102 Z M 78 9 " clip-rule="nonzero"/></clipPath><clipPath id="a3e2ebdfc2"><path d="M 117.535156 3.117188 L 162.550781 56.285156 L 99.660156 109.535156 L 54.644531 56.363281 Z M 117.535156 3.117188 " clip-rule="nonzero"/></clipPath><clipPath id="16617b590a"><path d="M 117.535156 3.117188 L 162.550781 56.285156 L 99.660156 109.535156 L 54.644531 56.363281 Z M 117.535156 3.117188 " clip-rule="nonzero"/></clipPath><clipPath id="2f850de7e2"><path d="M 20 372 L 71 372 L 71 452 L 20 452 Z M 20 372 " clip-rule="nonzero"/></clipPath><clipPath id="1705d53dc2"><path d="M 63.757812 462.414062 L -0.238281 417.976562 L 33.089844 369.980469 L 97.082031 414.414062 Z M 63.757812 462.414062 " clip-rule="nonzero"/></clipPath><clipPath id="530306d7e4"><path d="M 63.757812 462.414062 L -0.238281 417.976562 L 33.089844 369.980469 L 97.082031 414.414062 Z M 63.757812 462.414062 " clip-rule="nonzero"/></clipPath><clipPath id="7a7af59e53"><path d="M 601 121 L 629 121 L 629 178 L 601 178 Z M 601 121 " clip-rule="nonzero"/></clipPath><clipPath id="91ea079068"><path d="M 618.050781 179.976562 L 560.980469 164.316406 L 585.957031 73.289062 L 643.03125 88.953125 Z M 618.050781 179.976562 " clip-rule="nonzero"/></clipPath><clipPath id="8acced7bd7"><path d="M 618.050781 179.976562 L 560.980469 164.316406 L 585.957031 73.289062 L 643.03125 88.953125 Z M 618.050781 179.976562 " clip-rule="nonzero"/></clipPath><clipPath id="88a437e3cf"><path d="M 578 74 L 602 74 L 602 131 L 578 131 Z M 578 74 " clip-rule="nonzero"/></clipPath><clipPath id="69d7dd1c46"><path d="M 618.050781 179.976562 L 560.980469 164.316406 L 585.957031 73.289062 L 643.03125 88.953125 Z M 618.050781 179.976562 " clip-rule="nonzero"/></clipPath><clipPath id="ca7a7fcb89"><path d="M 618.050781 179.976562 L 560.980469 164.316406 L 585.957031 73.289062 L 643.03125 88.953125 Z M 618.050781 179.976562 " clip-rule="nonzero"/></clipPath></defs><g clip-path="url(#371d05bdbc)"><path fill="#ffffff" d="M 226.109375 0.0195312 C 178.792969 0.0195312 140.332031 38.515625 140.332031 85.792969 C 140.332031 133.109375 178.792969 171.570312 226.109375 171.570312 C 273.386719 171.570312 311.882812 133.109375 311.882812 85.792969 C 311.882812 38.515625 273.386719 0.0195312 226.109375 0.0195312 Z M 226.109375 164.878906 C 182.5 164.878906 147.023438 129.402344 147.023438 85.792969 C 147.023438 42.1875 182.5 6.710938 226.109375 6.710938 C 269.714844 6.710938 305.191406 42.1875 305.191406 85.792969 C 305.191406 129.402344 269.714844 164.878906 226.109375 164.878906 Z M 226.109375 164.878906 " fill-opacity="1" fill-rule="nonzero"/></g><path fill="#ffffff" d="M 226.109375 11.171875 C 184.96875 11.171875 151.484375 44.65625 151.484375 85.792969 C 151.484375 126.933594 184.96875 160.417969 226.109375 160.417969 C 267.246094 160.417969 300.730469 126.933594 300.730469 85.792969 C 300.730469 44.65625 267.246094 11.171875 226.109375 11.171875 Z M 226.109375 11.171875 " fill-opacity="1" fill-rule="nonzero"/><g clip-path="url(#0a42ae851f)"><path fill="#ffffff" d="M 140.433594 244.871094 C 93.121094 244.871094 54.660156 283.367188 54.660156 330.648438 C 54.660156 377.960938 93.121094 416.421875 140.433594 416.421875 C 187.714844 416.421875 226.210938 377.960938 226.210938 330.648438 C 226.210938 283.367188 187.714844 244.871094 140.433594 244.871094 Z M 140.433594 409.730469 C 96.828125 409.730469 61.351562 374.253906 61.351562 330.648438 C 61.351562 287.039062 96.828125 251.5625 140.433594 251.5625 C 184.042969 251.5625 219.519531 287.039062 219.519531 330.648438 C 219.519531 374.253906 184.042969 409.730469 140.433594 409.730469 Z M 140.433594 409.730469 " fill-opacity="1" fill-rule="nonzero"/></g><path fill="#ffffff" d="M 140.433594 256.023438 C 99.296875 256.023438 65.8125 289.511719 65.8125 330.648438 C 65.8125 371.785156 99.296875 405.273438 140.433594 405.273438 C 181.574219 405.273438 215.058594 371.785156 215.058594 330.648438 C 215.058594 289.511719 181.574219 256.023438 140.433594 256.023438 Z M 140.433594 256.023438 " fill-opacity="1" fill-rule="nonzero"/><g clip-path="url(#fd34eaebca)"><path fill="#ffffff" d="M 503.59375 109.34375 C 456.277344 109.34375 417.816406 147.839844 417.816406 195.121094 C 417.816406 242.433594 456.277344 280.894531 503.59375 280.894531 C 550.871094 280.894531 589.367188 242.433594 589.367188 195.121094 C 589.367188 147.839844 550.871094 109.34375 503.59375 109.34375 Z M 503.59375 274.203125 C 459.984375 274.203125 424.507812 238.726562 424.507812 195.121094 C 424.507812 151.511719 459.984375 116.035156 503.59375 116.035156 C 547.199219 116.035156 582.675781 151.511719 582.675781 195.121094 C 582.675781 238.726562 547.199219 274.203125 503.59375 274.203125 Z M 503.59375 274.203125 " fill-opacity="1" fill-rule="nonzero"/></g><path fill="#ffffff" d="M 503.59375 120.496094 C 462.453125 120.496094 428.96875 153.984375 428.96875 195.121094 C 428.96875 236.257812 462.453125 269.746094 503.59375 269.746094 C 544.730469 269.746094 578.21875 236.257812 578.21875 195.121094 C 578.21875 153.984375 544.730469 120.496094 503.59375 120.496094 Z M 503.59375 120.496094 " fill-opacity="1" fill-rule="nonzero"/><path stroke-linecap="butt" transform="matrix(0.700731, 0.264894, -0.264894, 0.700731, 320.392979, 109.44346)" fill="none" stroke-linejoin="miter" d="M 15.000148 1.997196 L 104.901781 2.000047 " stroke="#ffffff" stroke-width="4" stroke-opacity="1" stroke-miterlimit="4"/><path stroke-linecap="round" transform="matrix(0.700731, 0.264894, -0.264894, 0.700731, 320.392979, 109.44346)" fill="none" stroke-linejoin="round" d="M 2.001351 1.999903 C 1.996839 -1.31524 4.689088 -3.999765 7.999354 -4.002433 C 11.311464 -4.000224 13.999022 -1.314697 13.998657 2.00229 C 14.001325 5.312557 11.315798 8.000115 7.998811 7.99975 C 4.686701 7.997541 1.999142 5.312013 2.001351 1.999903 " stroke="#ffffff" stroke-width="4" stroke-opacity="1" stroke-miterlimit="4"/><path stroke-linecap="round" transform="matrix(0.700731, 0.264894, -0.264894, 0.700731, 320.392979, 109.44346)" fill="none" stroke-linejoin="round" d="M 117.902422 2.002217 C 117.900212 5.314327 115.214685 8.001885 111.902575 7.999676 C 108.585588 7.999311 105.902907 5.31194 105.900238 2.001674 C 105.900604 -1.315314 108.587975 -3.997995 111.903118 -4.002507 C 115.215228 -4.000298 117.902787 -1.314771 117.902422 2.002217 " stroke="#ffffff" stroke-width="4" stroke-opacity="1" stroke-miterlimit="4"/><path stroke-linecap="butt" transform="matrix(0.705168, -0.252845, 0.252845, 0.705168, 256.424571, 319.825042)" fill="none" stroke-linejoin="miter" d="M 15.000622 1.998386 L 192.677362 2.002379 " stroke="#ffffff" stroke-width="4" stroke-opacity="1" stroke-miterlimit="4"/><path stroke-linecap="round" transform="matrix(0.705168, -0.252845, 0.252845, 0.705168, 256.424571, 319.825042)" fill="none" stroke-linejoin="round" d="M 1.998702 2.000641 C 2.000758 -1.311218 4.687086 -3.998512 8.000706 -4.001364 C 11.312565 -3.999308 13.999859 -1.31298 13.997803 1.99888 C 14.000655 5.312499 11.314327 7.999793 8.000707 8.002646 C 4.688848 8.000589 2.001554 5.314261 1.998702 2.000641 " stroke="#ffffff" stroke-width="4" stroke-opacity="1" stroke-miterlimit="4"/><path stroke-linecap="round" transform="matrix(0.705168, -0.252845, 0.252845, 0.705168, 256.424571, 319.825042)" fill="none" stroke-linejoin="round" d="M 205.674374 1.998363 C 205.677227 5.311983 202.990898 7.999277 199.677279 8.002129 C 196.360511 7.998313 193.678125 5.313745 193.675273 2.000125 C 193.677329 -1.311734 196.363657 -3.999028 199.677277 -4.001881 C 202.989136 -3.999824 205.67643 -1.313496 205.674374 1.998363 " stroke="#ffffff" stroke-width="4" stroke-opacity="1" stroke-miterlimit="4"/><path stroke-linecap="butt" transform="matrix(0.215908, -0.71734, 0.71734, 0.215908, 149.898762, 228.779741)" fill="none" stroke-linejoin="miter" d="M 14.997203 1.998394 L 64.643419 1.99799 " stroke="#ffffff" stroke-width="4" stroke-opacity="1" stroke-miterlimit="4"/><path stroke-linecap="round" transform="matrix(0.215908, -0.71734, 0.71734, 0.215908, 149.898762, 228.779741)" fill="none" stroke-linejoin="round" d="M 1.999548 2.000648 C 1.99805 -1.315192 4.686657 -3.997664 8.002497 -3.999161 C 11.313343 -3.999156 14.000808 -1.312052 14.000803 1.998795 C 14.0023 5.314634 11.315196 8.002099 7.997854 7.998604 C 4.687007 7.998598 1.999542 5.311494 1.999548 2.000648 " stroke="#ffffff" stroke-width="4" stroke-opacity="1" stroke-miterlimit="4"/><path stroke-linecap="round" transform="matrix(0.215908, -0.71734, 0.71734, 0.215908, 149.898762, 228.779741)" fill="none" stroke-linejoin="round" d="M 77.642578 2.000729 C 77.642572 5.311576 74.955468 7.999041 71.644622 7.999035 C 68.328782 8.000533 65.64631 5.311926 65.646316 2.001079 C 65.644818 -1.31476 68.331922 -4.002225 71.642769 -4.00222 C 74.960111 -3.998724 77.64108 -1.315111 77.642578 2.000729 " stroke="#ffffff" stroke-width="4" stroke-opacity="1" stroke-miterlimit="4"/><g clip-path="url(#c57e853846)"><g clip-path="url(#a3e2ebdfc2)"><g clip-path="url(#16617b590a)"><path fill="#ffffff" d="M 104.960938 82.515625 C 111.0625 86.617188 120.992188 83.386719 125.3125 77.761719 C 128.0625 74.183594 127.679688 69.558594 124.328125 66.511719 C 120.621094 63.136719 115.203125 63.84375 111.09375 66.066406 C 108.183594 67.640625 105.199219 70.167969 103.453125 73.234375 C 103.351562 73.074219 103.246094 72.914062 103.140625 72.753906 C 103.011719 71.605469 102.890625 70.453125 102.792969 69.300781 C 102.441406 65.3125 102.261719 61.253906 102.339844 57.207031 C 105.691406 60.347656 110.804688 60.203125 115.066406 58.628906 C 120.082031 56.777344 125.023438 52.851562 127.140625 47.84375 C 128.9375 43.589844 127.582031 37.773438 122.753906 36.328125 C 117.929688 34.882812 112.558594 37.390625 108.6875 40.128906 C 106.8125 41.453125 104.96875 43.144531 103.5 45.082031 C 103.902344 42.871094 104.417969 40.683594 105.066406 38.53125 C 110.910156 37.289062 116.667969 33.683594 121.027344 29.75 C 125.242188 25.953125 129.6875 19.789062 125.996094 14.160156 C 122.886719 9.421875 117.148438 8.527344 112.167969 10.597656 C 107.019531 12.742188 102.828125 17.265625 100.445312 22.230469 C 98.011719 27.300781 98.042969 33.1875 101.9375 37.21875 C 101.605469 38.3125 101.300781 39.417969 101.027344 40.535156 C 99.949219 38.074219 98.347656 35.863281 96.347656 34.234375 C 91.199219 30.042969 83.476562 32 79.929688 37.359375 C 74.507812 45.542969 82.613281 57.265625 90.824219 59.804688 C 92.988281 60.472656 95.421875 60.539062 97.445312 59.390625 C 98.011719 59.070312 98.515625 58.679688 98.964844 58.242188 C 98.917969 61.816406 99.0625 65.394531 99.355469 68.960938 C 97.886719 67.921875 96.253906 67.132812 94.589844 66.679688 C 91.984375 65.964844 89.132812 65.957031 86.667969 67.175781 C 84.089844 68.449219 82.234375 70.894531 81.300781 73.578125 C 77.882812 83.417969 90.675781 87.574219 98.144531 86.539062 C 99.339844 86.375 100.570312 86.019531 101.671875 85.484375 C 102.589844 90.300781 103.707031 95.085938 104.972656 99.824219 C 105.527344 101.917969 108.867188 101.34375 108.304688 99.238281 C 106.875 93.894531 105.636719 88.488281 104.65625 83.035156 C 104.769531 82.867188 104.871094 82.691406 104.960938 82.515625 Z M 111.019531 70.0625 C 113.683594 68.171875 117.769531 66.523438 120.933594 68.1875 C 122.253906 68.882812 123.390625 70.292969 123.710938 71.546875 C 124.042969 72.835938 123.722656 74.023438 123.035156 75.113281 C 121.34375 77.820312 118.082031 79.664062 114.964844 80.46875 C 112.148438 81.195312 108.589844 81.273438 106.316406 79.429688 C 109.484375 77.925781 112.570312 76.257812 115.75 74.78125 C 117.726562 73.863281 116.304688 70.796875 114.328125 71.710938 C 111.503906 73.023438 108.757812 74.484375 105.960938 75.847656 C 106.972656 73.492188 108.996094 71.5 111.019531 70.0625 Z M 120.175781 39.308594 C 121.773438 39.371094 122.9375 39.816406 123.773438 41.035156 C 124.515625 42.121094 124.769531 44.089844 124.371094 45.535156 C 123.246094 49.621094 119.359375 52.828125 115.710938 54.660156 C 111.953125 56.542969 107.042969 57.476562 104.132812 54.15625 C 104.515625 54.195312 104.925781 54.113281 105.3125 53.847656 C 108.6875 51.550781 112.796875 50.644531 116.199219 48.359375 C 118.003906 47.148438 115.804688 44.574219 114.015625 45.777344 C 111.007812 47.796875 107.449219 48.734375 104.3125 50.53125 C 105.179688 48.015625 107.152344 45.753906 109.113281 44.078125 C 112.070312 41.554688 116.292969 39.160156 120.175781 39.3125 Z M 103.035156 24.730469 C 104.65625 20.554688 107.996094 16.6875 111.832031 14.527344 C 115.363281 12.539062 119.480469 11.980469 122.3125 14.941406 C 125.890625 18.691406 122.859375 23.304688 119.628906 26.4375 C 117.242188 28.742188 114.496094 30.6875 111.589844 32.285156 C 109.933594 33.191406 108.199219 34.042969 106.402344 34.652344 C 107.992188 30.621094 110.128906 26.847656 112.917969 23.488281 C 114.304688 21.816406 111.507812 19.914062 110.121094 21.578125 C 107.152344 25.15625 104.90625 29.1875 103.238281 33.46875 C 101.707031 30.953125 101.855469 27.769531 103.035156 24.726562 Z M 95.53125 56.566406 C 95.40625 56.625 95.273438 56.671875 95.136719 56.722656 C 95.082031 56.730469 94.796875 56.808594 94.722656 56.824219 C 93.96875 56.957031 93.671875 56.960938 92.699219 56.796875 C 92.667969 56.792969 92.179688 56.679688 91.800781 56.558594 C 91.371094 56.417969 90.953125 56.246094 90.542969 56.058594 C 90.140625 55.878906 90.105469 55.855469 89.601562 55.554688 C 89.179688 55.304688 88.769531 55.03125 88.371094 54.742188 C 86.8125 53.613281 85.539062 52.3125 84.320312 50.625 C 82.28125 47.816406 80.847656 43.9375 81.992188 40.714844 C 82.582031 39.0625 83.828125 37.671875 85.5 36.644531 C 87.769531 35.25 90.46875 34.707031 92.921875 35.984375 C 97.480469 38.363281 99.921875 44.847656 99.03125 49.925781 C 96.402344 47.898438 93.757812 45.890625 90.8125 44.347656 C 89.996094 43.917969 89.027344 43.980469 88.460938 44.789062 C 87.984375 45.472656 88.09375 46.71875 88.902344 47.140625 C 92.199219 48.871094 95.125 51.183594 98.066406 53.449219 C 97.933594 53.824219 97.789062 54.160156 97.664062 54.398438 C 97.453125 54.785156 97.203125 55.152344 96.925781 55.503906 C 96.867188 55.574219 96.84375 55.613281 96.828125 55.628906 C 96.8125 55.644531 96.78125 55.671875 96.714844 55.730469 C 96.550781 55.882812 96.386719 56.023438 96.21875 56.164062 C 96.15625 56.21875 96.113281 56.253906 96.089844 56.273438 C 96.078125 56.277344 96.058594 56.285156 96.019531 56.308594 C 95.859375 56.398438 95.699219 56.484375 95.53125 56.5625 Z M 88.769531 82.015625 C 87.417969 81.453125 86.121094 80.636719 85.246094 79.589844 C 84.410156 78.589844 84.011719 77.445312 84.171875 76.035156 C 84.628906 71.945312 88.289062 69.109375 92.335938 69.640625 C 95.210938 70.019531 98.042969 71.691406 99.878906 74.046875 C 99.980469 74.886719 100.085938 75.722656 100.203125 76.558594 C 97.027344 75.761719 93.777344 75.261719 90.570312 74.605469 C 88.4375 74.164062 88.179688 77.539062 90.289062 77.972656 C 93.78125 78.691406 97.320312 79.207031 100.746094 80.203125 C 100.847656 80.820312 100.949219 81.433594 101.050781 82.050781 C 100.332031 82.558594 99.476562 82.839844 98.496094 83.042969 C 95.320312 83.707031 91.808594 83.28125 88.769531 82.015625 Z M 88.769531 82.015625 " fill-opacity="1" fill-rule="nonzero"/></g></g></g><g clip-path="url(#2f850de7e2)"><g clip-path="url(#1705d53dc2)"><g clip-path="url(#530306d7e4)"><path fill="#ffffff" d="M 70.332031 448.976562 C 64.113281 442.011719 58.464844 434.5625 53.445312 426.714844 C 53.644531 426.527344 53.800781 426.261719 53.886719 425.910156 C 54.375 423.894531 54.863281 421.875 55.347656 419.859375 C 56.539062 420.210938 57.84375 420.125 59.226562 419.335938 C 62.328125 417.566406 64.125 413.804688 65.378906 410.617188 C 66.957031 406.59375 67.703125 402.289062 66.765625 398.003906 C 66.113281 395.03125 64.585938 391.636719 61.964844 389.894531 C 58.484375 387.578125 55.839844 391.199219 54.128906 393.847656 C 51.917969 397.277344 50.328125 401.214844 49.449219 405.199219 C 48.726562 408.480469 48.558594 412.171875 50.300781 415.1875 C 50.847656 416.113281 51.515625 417.042969 52.277344 417.839844 C 51.875 419.519531 51.46875 421.199219 51.0625 422.878906 C 48.605469 418.8125 46.3125 414.644531 44.199219 410.382812 C 44.703125 410.109375 45.171875 409.777344 45.589844 409.386719 C 47.605469 407.496094 48.277344 404.660156 48.316406 401.988281 C 48.414062 395.4375 45.972656 388.765625 43.289062 382.890625 C 42.148438 380.386719 40.898438 377.816406 39.230469 375.613281 C 37.660156 373.546875 35.277344 372.082031 32.691406 373.25 C 30.65625 374.164062 29.257812 376.253906 28.472656 378.269531 C 27.566406 380.652344 27.359375 383.34375 27.273438 385.867188 C 27.164062 389.332031 27.402344 392.839844 28.015625 396.253906 C 29.011719 401.789062 31.367188 409.480469 37.578125 411.101562 C 38.609375 411.367188 39.722656 411.460938 40.820312 411.367188 C 44.730469 419.308594 49.230469 426.964844 54.273438 434.238281 C 52.125 433.726562 49.976562 433.21875 47.824219 432.707031 C 47.785156 431.550781 47.46875 430.394531 46.925781 429.351562 C 46.011719 427.613281 44.375 426.519531 42.644531 425.703125 C 38.78125 423.878906 34.261719 423.320312 30.050781 422.9375 C 28.078125 422.757812 25.980469 422.5 24.042969 423.003906 C 21.320312 423.714844 19.460938 426.054688 20.1875 428.929688 C 20.941406 431.886719 23.707031 434.34375 26.058594 436.09375 C 28.816406 438.144531 32.011719 439.503906 35.371094 440.183594 C 39.359375 440.925781 44.84375 439.921875 47.019531 436.09375 C 47.023438 436.085938 47.027344 436.078125 47.035156 436.066406 C 49.972656 436.765625 52.914062 437.464844 55.855469 438.160156 C 56.289062 438.261719 56.679688 438.210938 57.011719 438.0625 C 57.46875 438.683594 57.925781 439.308594 58.390625 439.925781 C 61.324219 443.8125 64.421875 447.570312 67.660156 451.203125 C 69.148438 452.867188 71.820312 450.644531 70.332031 448.976562 Z M 55.273438 398.914062 C 55.914062 397.546875 56.675781 396.238281 57.539062 395.003906 C 57.921875 394.460938 58.316406 393.921875 58.75 393.417969 C 59.246094 392.839844 59.441406 392.417969 60.132812 392.859375 C 62.015625 394.058594 63.023438 396.949219 63.421875 399.007812 C 64.105469 402.535156 63.5625 405.4375 62.414062 408.617188 C 61.554688 410.992188 60.28125 413.824219 58.59375 415.460938 C 58.082031 415.957031 57.78125 416.210938 57.3125 416.421875 C 56.914062 416.597656 56.746094 416.652344 56.375 416.589844 C 56.300781 416.578125 56.226562 416.558594 56.148438 416.535156 L 58.425781 407.101562 C 58.945312 404.953125 55.671875 403.773438 55.144531 405.949219 C 54.535156 408.464844 53.929688 410.976562 53.324219 413.488281 C 50.96875 409.074219 53.335938 403.027344 55.265625 398.90625 Z M 35.640625 436.71875 C 31.289062 435.839844 26.769531 433.140625 24.226562 429.449219 C 23.859375 428.917969 23.335938 428.074219 23.511719 427.386719 C 23.730469 426.511719 24.890625 426.324219 25.644531 426.234375 C 26.992188 426.074219 28.433594 426.28125 29.785156 426.402344 C 33.050781 426.695312 36.359375 427.132812 39.484375 428.175781 C 41.339844 428.796875 43.726562 429.90625 44.296875 431.863281 C 42.488281 431.433594 40.679688 431.003906 38.871094 430.574219 C 36.71875 430.066406 35.535156 433.335938 37.71875 433.855469 C 39.625 434.308594 41.53125 434.761719 43.441406 435.214844 C 41.632812 437.042969 37.761719 437.113281 35.640625 436.71875 Z M 38.835938 407.839844 C 34.132812 406.917969 32.347656 400.324219 31.546875 396.21875 C 30.925781 393.035156 30.65625 389.777344 30.730469 386.535156 C 30.785156 384.085938 30.921875 381.59375 31.75 379.417969 C 32.167969 378.34375 33.136719 376.484375 34.441406 376.3125 C 35.632812 376.15625 36.519531 377.730469 37.109375 378.617188 C 38.074219 380.0625 39.273438 382.457031 40.136719 384.351562 C 42.449219 389.417969 44.558594 395.054688 44.835938 400.671875 C 44.933594 402.644531 44.746094 404.847656 43.71875 406.285156 C 43.433594 406.679688 43.101562 407.003906 42.679688 407.257812 C 40.644531 402.9375 38.789062 398.53125 37.109375 394.058594 C 36.320312 391.960938 33.175781 393.441406 33.957031 395.523438 C 35.53125 399.710938 37.269531 403.839844 39.15625 407.890625 C 39.046875 407.878906 38.933594 407.863281 38.832031 407.84375 Z M 38.835938 407.839844 " fill-opacity="1" fill-rule="nonzero"/></g></g></g><g clip-path="url(#7a7af59e53)"><g clip-path="url(#91ea079068)"><g clip-path="url(#8acced7bd7)"><path fill="#ffffff" d="M 606.761719 175.742188 C 608.878906 177.46875 611.554688 177.890625 614.003906 176.613281 C 616.609375 175.253906 618.433594 172.566406 619.757812 170.035156 C 621.492188 166.722656 622.648438 163.09375 623.351562 159.433594 C 624.0625 155.726562 624.363281 151.890625 623.886719 148.136719 C 623.484375 144.960938 622.519531 141.640625 620.246094 139.273438 C 619.910156 138.921875 619.539062 138.601562 619.152344 138.308594 C 619.414062 137.945312 619.457031 137.378906 619.179688 136.96875 C 621.191406 131.773438 624.113281 127.042969 627.976562 122.90625 C 628.898438 121.921875 627.4375 120.417969 626.511719 121.40625 C 622.539062 125.65625 619.402344 130.519531 617.296875 135.949219 C 617.273438 136.007812 617.25 136.070312 617.226562 136.128906 C 611.398438 134.886719 607.109375 140.425781 604.988281 145.40625 C 602.0625 152.269531 600.980469 160.578125 602.582031 167.90625 C 603.214844 170.785156 604.414062 173.828125 606.761719 175.742188 Z M 605.878906 149 C 607.308594 144.515625 610.625 137.28125 616.363281 138.089844 C 616.414062 138.097656 616.464844 138.105469 616.519531 138.117188 C 615.054688 142.507812 614.203125 147.082031 613.496094 151.652344 C 612.984375 154.96875 612.535156 158.296875 612.023438 161.613281 C 611.820312 162.933594 613.84375 163.503906 614.050781 162.167969 C 615.121094 155.234375 615.832031 148.191406 617.707031 141.410156 C 617.824219 140.980469 617.949219 140.550781 618.082031 140.128906 C 619.933594 141.636719 620.917969 143.988281 621.445312 146.28125 C 622.195312 149.535156 622.136719 152.960938 621.742188 156.257812 C 621.324219 159.753906 620.425781 163.230469 619.101562 166.492188 C 618.046875 169.09375 616.625 171.765625 614.523438 173.679688 C 613.761719 174.371094 612.875 174.941406 611.933594 175.179688 C 611.101562 175.386719 610.15625 175.292969 609.371094 174.933594 C 607.132812 173.898438 605.839844 171.53125 605.105469 169.21875 C 603.070312 162.808594 603.867188 155.3125 605.882812 149 Z M 605.878906 149 " fill-opacity="1" fill-rule="nonzero"/></g></g></g><g clip-path="url(#88a437e3cf)"><g clip-path="url(#69d7dd1c46)"><g clip-path="url(#ca7a7fcb89)"><path fill="#ffffff" d="M 586.421875 76.191406 C 589.417969 79.144531 590.421875 83.652344 590.75 87.703125 C 590.863281 89.117188 590.898438 90.539062 590.863281 91.957031 C 590.335938 92.003906 589.925781 92.53125 589.921875 93.0625 C 585.921875 93.617188 582.773438 98.527344 581.277344 102.164062 C 579.839844 105.660156 579.039062 109.457031 578.894531 113.234375 C 578.757812 116.742188 579.210938 120.46875 580.914062 123.59375 C 582.535156 126.578125 585.625 128.808594 588.796875 129.917969 C 591.339844 130.808594 594.085938 130.585938 596.246094 128.90625 C 598.375 127.253906 599.574219 124.621094 600.277344 122.082031 C 601.160156 118.882812 601.359375 115.480469 601.132812 112.175781 C 600.722656 106.125 598.917969 99.320312 594.644531 94.757812 C 594.582031 94.542969 594.445312 94.34375 594.214844 94.191406 C 594.09375 94.109375 593.976562 94.035156 593.855469 93.960938 C 593.710938 93.828125 593.5625 93.691406 593.410156 93.558594 C 593.246094 93.414062 593.078125 93.277344 592.910156 93.140625 C 593.148438 89.054688 592.855469 84.847656 591.582031 80.980469 C 590.816406 78.664062 589.667969 76.445312 587.917969 74.722656 C 586.953125 73.773438 585.453125 75.242188 586.417969 76.1875 Z M 598.738281 109.441406 C 599.207031 112.480469 599.285156 115.65625 598.839844 118.703125 C 598.476562 121.230469 597.773438 123.839844 596.246094 125.925781 C 595.070312 127.523438 593.398438 128.46875 591.378906 128.34375 C 588.765625 128.1875 585.789062 126.339844 584.019531 124.390625 C 582.011719 122.179688 581.242188 119.035156 581.035156 116.128906 C 580.789062 112.675781 581.246094 109.1875 582.207031 105.867188 C 583.046875 102.964844 584.28125 99.964844 586.277344 97.65625 C 587.484375 96.261719 589.011719 95.132812 590.667969 95.128906 C 590.441406 97.414062 590.035156 99.679688 589.457031 101.886719 C 588.886719 104.066406 588.152344 106.21875 587.054688 108.191406 C 586.398438 109.371094 588.203125 110.449219 588.859375 109.265625 C 591.105469 105.222656 592.144531 100.519531 592.667969 95.960938 C 592.675781 95.886719 592.683594 95.8125 592.691406 95.742188 C 596.269531 99.265625 598.003906 104.640625 598.742188 109.445312 Z M 598.738281 109.441406 " fill-opacity="1" fill-rule="nonzero"/></g></g></g><g fill="#000000" fill-opacity="0.4"><g transform="translate(186.589992, 92.339523)"><g><path d="M 2.015625 0 L 2.015625 -8.734375 C 2.015625 -10.398438 2.457031 -11.679688 3.34375 -12.578125 C 4.238281 -13.484375 5.679688 -13.9375 7.671875 -13.9375 C 9.648438 -13.9375 11.082031 -13.484375 11.96875 -12.578125 C 12.863281 -11.679688 13.3125 -10.398438 13.3125 -8.734375 L 13.3125 0 L 11.09375 0 L 11.09375 -8.734375 C 11.09375 -10.960938 9.941406 -12.078125 7.640625 -12.078125 C 5.378906 -12.078125 4.25 -10.960938 4.25 -8.734375 L 4.25 -5.96875 L 4.3125 -5.9375 C 4.6875 -6.59375 5.140625 -7.023438 5.671875 -7.234375 C 6.203125 -7.441406 6.953125 -7.546875 7.921875 -7.546875 L 8.734375 -7.546875 L 8.734375 -5.71875 L 7.921875 -5.71875 C 6.898438 -5.71875 6.125 -5.578125 5.59375 -5.296875 C 5.070312 -5.015625 4.71875 -4.644531 4.53125 -4.1875 C 4.34375 -3.726562 4.25 -3.210938 4.25 -2.640625 L 4.25 0 Z M 2.015625 0 "/></g></g></g><g fill="#000000" fill-opacity="0.4"><g transform="translate(201.919714, 92.339523)"><g><path d="M 4.765625 0.25 C 4.117188 0.25 3.488281 0.179688 2.875 0.046875 C 2.269531 -0.0859375 1.628906 -0.335938 0.953125 -0.703125 L 1.640625 -2.390625 C 2.015625 -2.179688 2.429688 -1.992188 2.890625 -1.828125 C 3.359375 -1.671875 3.898438 -1.59375 4.515625 -1.59375 C 5.742188 -1.59375 6.703125 -2.039062 7.390625 -2.9375 C 8.085938 -3.84375 8.4375 -5.160156 8.4375 -6.890625 C 8.4375 -8.566406 8.082031 -9.847656 7.375 -10.734375 C 6.664062 -11.628906 5.582031 -12.078125 4.125 -12.078125 C 3.59375 -12.078125 3.050781 -12.019531 2.5 -11.90625 C 1.945312 -11.789062 1.460938 -11.617188 1.046875 -11.390625 L 1.046875 -13.265625 C 1.515625 -13.515625 2.039062 -13.6875 2.625 -13.78125 C 3.207031 -13.882812 3.789062 -13.9375 4.375 -13.9375 C 5.863281 -13.9375 7.070312 -13.640625 8 -13.046875 C 8.9375 -12.453125 9.625 -11.625 10.0625 -10.5625 C 10.5 -9.507812 10.71875 -8.285156 10.71875 -6.890625 C 10.71875 -4.691406 10.21875 -2.953125 9.21875 -1.671875 C 8.226562 -0.390625 6.742188 0.25 4.765625 0.25 Z M 4.765625 0.25 "/></g></g></g><g fill="#000000" fill-opacity="0.4"><g transform="translate(214.203464, 92.339523)"><g><path d="M 5.890625 0 L 5.890625 -9.71875 C 5.890625 -10.53125 5.703125 -11.125 5.328125 -11.5 C 4.953125 -11.882812 4.328125 -12.078125 3.453125 -12.078125 C 2.847656 -12.078125 2.28125 -11.992188 1.75 -11.828125 C 1.226562 -11.660156 0.726562 -11.445312 0.25 -11.1875 L 0.25 -13.1875 C 0.582031 -13.351562 1.054688 -13.519531 1.671875 -13.6875 C 2.285156 -13.851562 3.019531 -13.9375 3.875 -13.9375 C 5.164062 -13.9375 6.191406 -13.644531 6.953125 -13.0625 C 7.722656 -12.476562 8.109375 -11.46875 8.109375 -10.03125 L 8.109375 0 Z M 5.890625 0 "/></g></g></g><g fill="#000000" fill-opacity="0.4"><g transform="translate(224.340055, 92.339523)"><g><path d="M 8.609375 0.25 C 7.523438 0.25 6.597656 0.0351562 5.828125 -0.390625 C 5.066406 -0.816406 4.546875 -1.410156 4.265625 -2.171875 L 4.171875 -2.171875 L 4.046875 0 L 2.21875 0 L 2.21875 -13.6875 L 4.4375 -13.6875 L 4.4375 -5.765625 C 4.4375 -4.503906 4.757812 -3.5 5.40625 -2.75 C 6.0625 -2 6.984375 -1.625 8.171875 -1.625 C 10.117188 -1.625 11.09375 -2.640625 11.09375 -4.671875 L 11.09375 -13.6875 L 13.3125 -13.6875 L 13.3125 -4.515625 C 13.3125 -2.867188 12.898438 -1.660156 12.078125 -0.890625 C 11.253906 -0.128906 10.097656 0.25 8.609375 0.25 Z M 8.609375 0.25 "/></g></g></g><g fill="#000000" fill-opacity="0.4"><g transform="translate(239.669777, 92.339523)"><g><path d="M 5.75 0.25 C 4.28125 0.25 3.15625 -0.0820312 2.375 -0.75 C 1.601562 -1.425781 1.21875 -2.398438 1.21875 -3.671875 C 1.21875 -5.054688 1.722656 -6.117188 2.734375 -6.859375 C 3.742188 -7.609375 5.378906 -8.050781 7.640625 -8.1875 L 10.03125 -8.34375 L 10.03125 -9.109375 C 10.03125 -10.191406 9.785156 -10.960938 9.296875 -11.421875 C 8.804688 -11.878906 7.988281 -12.109375 6.84375 -12.109375 C 6.007812 -12.109375 5.207031 -11.992188 4.4375 -11.765625 C 3.675781 -11.546875 2.960938 -11.238281 2.296875 -10.84375 L 2.296875 -12.90625 C 2.765625 -13.15625 3.414062 -13.390625 4.25 -13.609375 C 5.082031 -13.828125 6.015625 -13.9375 7.046875 -13.9375 C 7.710938 -13.9375 8.304688 -13.875 8.828125 -13.75 C 9.347656 -13.632812 9.785156 -13.4375 10.140625 -13.15625 C 10.421875 -13.289062 10.660156 -13.472656 10.859375 -13.703125 C 11.054688 -13.941406 11.15625 -14.234375 11.15625 -14.578125 L 13.328125 -14.578125 C 13.328125 -13.953125 13.148438 -13.421875 12.796875 -12.984375 C 12.441406 -12.546875 11.988281 -12.210938 11.4375 -11.984375 C 11.71875 -11.679688 11.921875 -11.296875 12.046875 -10.828125 C 12.171875 -10.367188 12.234375 -9.835938 12.234375 -9.234375 L 12.234375 0 L 10.03125 0 L 10.03125 -6.484375 L 7.9375 -6.34375 C 6.238281 -6.226562 5.066406 -5.960938 4.421875 -5.546875 C 3.785156 -5.128906 3.46875 -4.519531 3.46875 -3.71875 C 3.46875 -2.96875 3.703125 -2.414062 4.171875 -2.0625 C 4.648438 -1.71875 5.316406 -1.546875 6.171875 -1.546875 C 6.710938 -1.546875 7.191406 -1.617188 7.609375 -1.765625 L 7.96875 -0.09375 C 7.644531 0.03125 7.296875 0.117188 6.921875 0.171875 C 6.546875 0.222656 6.15625 0.25 5.75 0.25 Z M 5.75 0.25 "/></g></g></g><g fill="#000000" fill-opacity="0.4"><g transform="translate(254.126495, 92.339523)"><g><path d="M -4.21875 6.515625 L -4.21875 3.875 C -4.21875 3.457031 -4.398438 3.25 -4.765625 3.25 C -4.847656 3.25 -4.9375 3.253906 -5.03125 3.265625 C -5.125 3.285156 -5.210938 3.3125 -5.296875 3.34375 L -5.46875 1.84375 C -5.21875 1.757812 -4.945312 1.695312 -4.65625 1.65625 C -4.363281 1.613281 -4.125 1.59375 -3.9375 1.59375 C -3.375 1.59375 -2.953125 1.734375 -2.671875 2.015625 C -2.390625 2.304688 -2.25 2.679688 -2.25 3.140625 L -2.25 6.515625 Z M -4.21875 6.515625 "/></g></g></g><g fill="#000000" fill-opacity="0.4"><g transform="translate(253.950884, 92.339523)"><g><path d="M 6.84375 0.25 C 5.28125 0.25 4.066406 -0.125 3.203125 -0.875 C 2.347656 -1.632812 1.921875 -2.773438 1.921875 -4.296875 L 1.921875 -5.8125 C 1.921875 -6.632812 2.035156 -7.289062 2.265625 -7.78125 C 2.503906 -8.269531 2.753906 -8.6875 3.015625 -9.03125 C 3.304688 -9.40625 3.550781 -9.738281 3.75 -10.03125 C 3.957031 -10.320312 4.0625 -10.664062 4.0625 -11.0625 C 4.0625 -11.40625 3.972656 -11.648438 3.796875 -11.796875 C 3.628906 -11.953125 3.410156 -12.03125 3.140625 -12.03125 C 2.941406 -12.03125 2.726562 -11.992188 2.5 -11.921875 C 2.28125 -11.859375 2.0625 -11.78125 1.84375 -11.6875 L 1.34375 -13.28125 C 1.644531 -13.476562 2.015625 -13.617188 2.453125 -13.703125 C 2.898438 -13.785156 3.289062 -13.828125 3.625 -13.828125 C 4.539062 -13.828125 5.191406 -13.585938 5.578125 -13.109375 C 5.972656 -12.640625 6.171875 -12.039062 6.171875 -11.3125 C 6.171875 -10.695312 6.066406 -10.1875 5.859375 -9.78125 C 5.648438 -9.382812 5.40625 -8.992188 5.125 -8.609375 C 4.832031 -8.191406 4.59375 -7.789062 4.40625 -7.40625 C 4.226562 -7.03125 4.140625 -6.535156 4.140625 -5.921875 L 4.140625 -4.4375 C 4.140625 -3.675781 4.265625 -3.085938 4.515625 -2.671875 C 4.765625 -2.253906 5.097656 -1.96875 5.515625 -1.8125 C 5.929688 -1.65625 6.375 -1.578125 6.84375 -1.578125 C 8.550781 -1.578125 9.40625 -2.375 9.40625 -3.96875 L 9.40625 -13.6875 L 11.640625 -13.6875 L 11.640625 -3.84375 C 11.640625 -2.5625 11.226562 -1.554688 10.40625 -0.828125 C 9.59375 -0.109375 8.40625 0.25 6.84375 0.25 Z M 6.84375 0.25 "/></g></g></g><g fill="#0c598b" fill-opacity="1"><g transform="translate(185.486418, 91.235951)"><g><path d="M 2.015625 0 L 2.015625 -8.734375 C 2.015625 -10.398438 2.457031 -11.679688 3.34375 -12.578125 C 4.238281 -13.484375 5.679688 -13.9375 7.671875 -13.9375 C 9.648438 -13.9375 11.082031 -13.484375 11.96875 -12.578125 C 12.863281 -11.679688 13.3125 -10.398438 13.3125 -8.734375 L 13.3125 0 L 11.09375 0 L 11.09375 -8.734375 C 11.09375 -10.960938 9.941406 -12.078125 7.640625 -12.078125 C 5.378906 -12.078125 4.25 -10.960938 4.25 -8.734375 L 4.25 -5.96875 L 4.3125 -5.9375 C 4.6875 -6.59375 5.140625 -7.023438 5.671875 -7.234375 C 6.203125 -7.441406 6.953125 -7.546875 7.921875 -7.546875 L 8.734375 -7.546875 L 8.734375 -5.71875 L 7.921875 -5.71875 C 6.898438 -5.71875 6.125 -5.578125 5.59375 -5.296875 C 5.070312 -5.015625 4.71875 -4.644531 4.53125 -4.1875 C 4.34375 -3.726562 4.25 -3.210938 4.25 -2.640625 L 4.25 0 Z M 2.015625 0 "/></g></g></g><g fill="#0c598b" fill-opacity="1"><g transform="translate(200.81614, 91.235951)"><g><path d="M 4.765625 0.25 C 4.117188 0.25 3.488281 0.179688 2.875 0.046875 C 2.269531 -0.0859375 1.628906 -0.335938 0.953125 -0.703125 L 1.640625 -2.390625 C 2.015625 -2.179688 2.429688 -1.992188 2.890625 -1.828125 C 3.359375 -1.671875 3.898438 -1.59375 4.515625 -1.59375 C 5.742188 -1.59375 6.703125 -2.039062 7.390625 -2.9375 C 8.085938 -3.84375 8.4375 -5.160156 8.4375 -6.890625 C 8.4375 -8.566406 8.082031 -9.847656 7.375 -10.734375 C 6.664062 -11.628906 5.582031 -12.078125 4.125 -12.078125 C 3.59375 -12.078125 3.050781 -12.019531 2.5 -11.90625 C 1.945312 -11.789062 1.460938 -11.617188 1.046875 -11.390625 L 1.046875 -13.265625 C 1.515625 -13.515625 2.039062 -13.6875 2.625 -13.78125 C 3.207031 -13.882812 3.789062 -13.9375 4.375 -13.9375 C 5.863281 -13.9375 7.070312 -13.640625 8 -13.046875 C 8.9375 -12.453125 9.625 -11.625 10.0625 -10.5625 C 10.5 -9.507812 10.71875 -8.285156 10.71875 -6.890625 C 10.71875 -4.691406 10.21875 -2.953125 9.21875 -1.671875 C 8.226562 -0.390625 6.742188 0.25 4.765625 0.25 Z M 4.765625 0.25 "/></g></g></g><g fill="#0c598b" fill-opacity="1"><g transform="translate(213.099889, 91.235951)"><g><path d="M 5.890625 0 L 5.890625 -9.71875 C 5.890625 -10.53125 5.703125 -11.125 5.328125 -11.5 C 4.953125 -11.882812 4.328125 -12.078125 3.453125 -12.078125 C 2.847656 -12.078125 2.28125 -11.992188 1.75 -11.828125 C 1.226562 -11.660156 0.726562 -11.445312 0.25 -11.1875 L 0.25 -13.1875 C 0.582031 -13.351562 1.054688 -13.519531 1.671875 -13.6875 C 2.285156 -13.851562 3.019531 -13.9375 3.875 -13.9375 C 5.164062 -13.9375 6.191406 -13.644531 6.953125 -13.0625 C 7.722656 -12.476562 8.109375 -11.46875 8.109375 -10.03125 L 8.109375 0 Z M 5.890625 0 "/></g></g></g><g fill="#0c598b" fill-opacity="1"><g transform="translate(223.23648, 91.235951)"><g><path d="M 8.609375 0.25 C 7.523438 0.25 6.597656 0.0351562 5.828125 -0.390625 C 5.066406 -0.816406 4.546875 -1.410156 4.265625 -2.171875 L 4.171875 -2.171875 L 4.046875 0 L 2.21875 0 L 2.21875 -13.6875 L 4.4375 -13.6875 L 4.4375 -5.765625 C 4.4375 -4.503906 4.757812 -3.5 5.40625 -2.75 C 6.0625 -2 6.984375 -1.625 8.171875 -1.625 C 10.117188 -1.625 11.09375 -2.640625 11.09375 -4.671875 L 11.09375 -13.6875 L 13.3125 -13.6875 L 13.3125 -4.515625 C 13.3125 -2.867188 12.898438 -1.660156 12.078125 -0.890625 C 11.253906 -0.128906 10.097656 0.25 8.609375 0.25 Z M 8.609375 0.25 "/></g></g></g><g fill="#0c598b" fill-opacity="1"><g transform="translate(238.566202, 91.235951)"><g><path d="M 5.75 0.25 C 4.28125 0.25 3.15625 -0.0820312 2.375 -0.75 C 1.601562 -1.425781 1.21875 -2.398438 1.21875 -3.671875 C 1.21875 -5.054688 1.722656 -6.117188 2.734375 -6.859375 C 3.742188 -7.609375 5.378906 -8.050781 7.640625 -8.1875 L 10.03125 -8.34375 L 10.03125 -9.109375 C 10.03125 -10.191406 9.785156 -10.960938 9.296875 -11.421875 C 8.804688 -11.878906 7.988281 -12.109375 6.84375 -12.109375 C 6.007812 -12.109375 5.207031 -11.992188 4.4375 -11.765625 C 3.675781 -11.546875 2.960938 -11.238281 2.296875 -10.84375 L 2.296875 -12.90625 C 2.765625 -13.15625 3.414062 -13.390625 4.25 -13.609375 C 5.082031 -13.828125 6.015625 -13.9375 7.046875 -13.9375 C 7.710938 -13.9375 8.304688 -13.875 8.828125 -13.75 C 9.347656 -13.632812 9.785156 -13.4375 10.140625 -13.15625 C 10.421875 -13.289062 10.660156 -13.472656 10.859375 -13.703125 C 11.054688 -13.941406 11.15625 -14.234375 11.15625 -14.578125 L 13.328125 -14.578125 C 13.328125 -13.953125 13.148438 -13.421875 12.796875 -12.984375 C 12.441406 -12.546875 11.988281 -12.210938 11.4375 -11.984375 C 11.71875 -11.679688 11.921875 -11.296875 12.046875 -10.828125 C 12.171875 -10.367188 12.234375 -9.835938 12.234375 -9.234375 L 12.234375 0 L 10.03125 0 L 10.03125 -6.484375 L 7.9375 -6.34375 C 6.238281 -6.226562 5.066406 -5.960938 4.421875 -5.546875 C 3.785156 -5.128906 3.46875 -4.519531 3.46875 -3.71875 C 3.46875 -2.96875 3.703125 -2.414062 4.171875 -2.0625 C 4.648438 -1.71875 5.316406 -1.546875 6.171875 -1.546875 C 6.710938 -1.546875 7.191406 -1.617188 7.609375 -1.765625 L 7.96875 -0.09375 C 7.644531 0.03125 7.296875 0.117188 6.921875 0.171875 C 6.546875 0.222656 6.15625 0.25 5.75 0.25 Z M 5.75 0.25 "/></g></g></g><g fill="#0c598b" fill-opacity="1"><g transform="translate(253.022921, 91.235951)"><g><path d="M -4.21875 6.515625 L -4.21875 3.875 C -4.21875 3.457031 -4.398438 3.25 -4.765625 3.25 C -4.847656 3.25 -4.9375 3.253906 -5.03125 3.265625 C -5.125 3.285156 -5.210938 3.3125 -5.296875 3.34375 L -5.46875 1.84375 C -5.21875 1.757812 -4.945312 1.695312 -4.65625 1.65625 C -4.363281 1.613281 -4.125 1.59375 -3.9375 1.59375 C -3.375 1.59375 -2.953125 1.734375 -2.671875 2.015625 C -2.390625 2.304688 -2.25 2.679688 -2.25 3.140625 L -2.25 6.515625 Z M -4.21875 6.515625 "/></g></g></g><g fill="#0c598b" fill-opacity="1"><g transform="translate(252.84731, 91.235951)"><g><path d="M 6.84375 0.25 C 5.28125 0.25 4.066406 -0.125 3.203125 -0.875 C 2.347656 -1.632812 1.921875 -2.773438 1.921875 -4.296875 L 1.921875 -5.8125 C 1.921875 -6.632812 2.035156 -7.289062 2.265625 -7.78125 C 2.503906 -8.269531 2.753906 -8.6875 3.015625 -9.03125 C 3.304688 -9.40625 3.550781 -9.738281 3.75 -10.03125 C 3.957031 -10.320312 4.0625 -10.664062 4.0625 -11.0625 C 4.0625 -11.40625 3.972656 -11.648438 3.796875 -11.796875 C 3.628906 -11.953125 3.410156 -12.03125 3.140625 -12.03125 C 2.941406 -12.03125 2.726562 -11.992188 2.5 -11.921875 C 2.28125 -11.859375 2.0625 -11.78125 1.84375 -11.6875 L 1.34375 -13.28125 C 1.644531 -13.476562 2.015625 -13.617188 2.453125 -13.703125 C 2.898438 -13.785156 3.289062 -13.828125 3.625 -13.828125 C 4.539062 -13.828125 5.191406 -13.585938 5.578125 -13.109375 C 5.972656 -12.640625 6.171875 -12.039062 6.171875 -11.3125 C 6.171875 -10.695312 6.066406 -10.1875 5.859375 -9.78125 C 5.648438 -9.382812 5.40625 -8.992188 5.125 -8.609375 C 4.832031 -8.191406 4.59375 -7.789062 4.40625 -7.40625 C 4.226562 -7.03125 4.140625 -6.535156 4.140625 -5.921875 L 4.140625 -4.4375 C 4.140625 -3.675781 4.265625 -3.085938 4.515625 -2.671875 C 4.765625 -2.253906 5.097656 -1.96875 5.515625 -1.8125 C 5.929688 -1.65625 6.375 -1.578125 6.84375 -1.578125 C 8.550781 -1.578125 9.40625 -2.375 9.40625 -3.96875 L 9.40625 -13.6875 L 11.640625 -13.6875 L 11.640625 -3.84375 C 11.640625 -2.5625 11.226562 -1.554688 10.40625 -0.828125 C 9.59375 -0.109375 8.40625 0.25 6.84375 0.25 Z M 6.84375 0.25 "/></g></g></g><g fill="#000000" fill-opacity="0.4"><g transform="translate(456.337753, 203.612645)"><g><path d="M 2.09375 0 L 2.09375 -13.6875 L 3.640625 -13.6875 L 4.046875 -11.515625 L 4.140625 -11.515625 C 4.421875 -12.265625 4.9375 -12.851562 5.6875 -13.28125 C 6.4375 -13.71875 7.347656 -13.9375 8.421875 -13.9375 C 9.898438 -13.9375 11.0625 -13.550781 11.90625 -12.78125 C 12.757812 -12.019531 13.1875 -10.804688 13.1875 -9.140625 L 13.1875 0 L 10.96875 0 L 10.96875 -9.015625 C 10.96875 -11.046875 9.972656 -12.0625 7.984375 -12.0625 C 7.203125 -12.0625 6.535156 -11.878906 5.984375 -11.515625 C 5.441406 -11.148438 5.023438 -10.65625 4.734375 -10.03125 C 4.453125 -9.40625 4.3125 -8.703125 4.3125 -7.921875 L 4.3125 0 Z M 2.09375 0 "/></g></g></g><g fill="#000000" fill-opacity="0.4"><g transform="translate(471.468625, 203.612645)"><g><path d="M -5.390625 -15.859375 C -6.441406 -15.859375 -7.179688 -16.066406 -7.609375 -16.484375 C -8.046875 -16.910156 -8.265625 -17.390625 -8.265625 -17.921875 C -8.265625 -18.171875 -8.226562 -18.441406 -8.15625 -18.734375 C -8.082031 -19.023438 -7.984375 -19.265625 -7.859375 -19.453125 L -6 -19.125 C -6.09375 -18.925781 -6.140625 -18.671875 -6.140625 -18.359375 C -6.140625 -18.140625 -6.070312 -17.945312 -5.9375 -17.78125 C -5.8125 -17.625 -5.585938 -17.546875 -5.265625 -17.546875 L 1.046875 -17.546875 L 1.046875 -15.859375 Z M -5.390625 -15.859375 "/></g></g></g><g fill="#000000" fill-opacity="0.4"><g transform="translate(471.54264, 203.612645)"><g><path d="M 1.890625 0 L 1.890625 -4.75 C 1.890625 -5.789062 2.125 -6.546875 2.59375 -7.015625 C 3.0625 -7.492188 3.65625 -7.828125 4.375 -8.015625 L 4.390625 -8.09375 L 1.640625 -9.140625 L 1.640625 -9.96875 C 1.640625 -10.644531 1.863281 -11.285156 2.3125 -11.890625 C 2.769531 -12.503906 3.414062 -13 4.25 -13.375 C 5.082031 -13.75 6.085938 -13.9375 7.265625 -13.9375 C 8.273438 -13.9375 9.210938 -13.769531 10.078125 -13.4375 C 10.953125 -13.113281 11.648438 -12.609375 12.171875 -11.921875 C 12.691406 -11.234375 12.953125 -10.332031 12.953125 -9.21875 L 12.953125 0 L 10.734375 0 L 10.734375 -8.984375 C 10.734375 -10.097656 10.390625 -10.890625 9.703125 -11.359375 C 9.023438 -11.835938 8.203125 -12.078125 7.234375 -12.078125 C 6.203125 -12.078125 5.390625 -11.863281 4.796875 -11.4375 C 4.210938 -11.019531 3.921875 -10.488281 3.921875 -9.84375 L 6.609375 -8.484375 L 6.421875 -7.296875 C 5.804688 -7.296875 5.269531 -7.085938 4.8125 -6.671875 C 4.351562 -6.265625 4.125 -5.625 4.125 -4.75 L 4.125 0 Z M 1.890625 0 "/></g></g></g><g fill="#000000" fill-opacity="0.4"><g transform="translate(486.522831, 203.612645)"><g><path d="M 7.71875 0.25 C 5.65625 0.25 4.1875 -0.207031 3.3125 -1.125 C 2.445312 -2.050781 2.015625 -3.363281 2.015625 -5.0625 L 2.015625 -13.6875 L 4.25 -13.6875 L 4.25 -5.046875 C 4.25 -3.878906 4.519531 -3.007812 5.0625 -2.4375 C 5.613281 -1.875 6.5 -1.59375 7.71875 -1.59375 C 8.925781 -1.59375 9.804688 -1.875 10.359375 -2.4375 C 10.910156 -3.007812 11.1875 -3.878906 11.1875 -5.046875 L 11.1875 -5.640625 L 9.234375 -5.640625 C 8.171875 -5.640625 7.441406 -5.863281 7.046875 -6.3125 C 6.660156 -6.757812 6.46875 -7.257812 6.46875 -7.8125 C 6.46875 -8.0625 6.492188 -8.316406 6.546875 -8.578125 C 6.609375 -8.847656 6.707031 -9.078125 6.84375 -9.265625 L 8.640625 -8.9375 C 8.535156 -8.738281 8.484375 -8.5 8.484375 -8.21875 C 8.484375 -8 8.546875 -7.796875 8.671875 -7.609375 C 8.796875 -7.429688 9.019531 -7.34375 9.34375 -7.34375 L 11.1875 -7.34375 L 11.1875 -13.6875 L 13.40625 -13.6875 L 13.40625 -7.34375 L 15 -7.34375 L 15 -5.640625 L 13.40625 -5.640625 L 13.40625 -5.0625 C 13.40625 -3.363281 12.972656 -2.050781 12.109375 -1.125 C 11.242188 -0.207031 9.78125 0.25 7.71875 0.25 Z M 7.71875 0.25 "/></g></g></g><g fill="#000000" fill-opacity="0.4"><g transform="translate(502.501695, 203.612645)"><g><path d="M 3.8125 -8.59375 C 2.78125 -8.59375 2.046875 -8.8125 1.609375 -9.25 C 1.179688 -9.6875 0.96875 -10.179688 0.96875 -10.734375 C 0.96875 -11.296875 1.101562 -11.78125 1.375 -12.1875 L 3.25 -11.890625 C 3.21875 -11.804688 3.179688 -11.6875 3.140625 -11.53125 C 3.097656 -11.382812 3.078125 -11.238281 3.078125 -11.09375 C 3.078125 -10.875 3.132812 -10.691406 3.25 -10.546875 C 3.363281 -10.410156 3.578125 -10.34375 3.890625 -10.34375 L 7.46875 -10.34375 L 7.46875 -8.59375 Z M 3.8125 -1.59375 C 2.78125 -1.59375 2.046875 -1.8125 1.609375 -2.25 C 1.179688 -2.695312 0.96875 -3.195312 0.96875 -3.75 C 0.96875 -4.3125 1.101562 -4.789062 1.375 -5.1875 L 3.25 -4.890625 C 3.21875 -4.804688 3.179688 -4.6875 3.140625 -4.53125 C 3.097656 -4.382812 3.078125 -4.238281 3.078125 -4.09375 C 3.078125 -3.875 3.132812 -3.691406 3.25 -3.546875 C 3.363281 -3.410156 3.578125 -3.34375 3.890625 -3.34375 L 7.46875 -3.34375 L 7.46875 -1.59375 Z M 3.8125 -1.59375 "/></g></g></g><g fill="#000000" fill-opacity="0.4"><g transform="translate(510.940529, 203.612645)"><g><path d="M 6.859375 0.25 C 5.285156 0.25 4.066406 -0.125 3.203125 -0.875 C 2.347656 -1.632812 1.921875 -2.773438 1.921875 -4.296875 L 1.921875 -5.8125 C 1.921875 -6.632812 2.035156 -7.289062 2.265625 -7.78125 C 2.503906 -8.269531 2.753906 -8.6875 3.015625 -9.03125 C 3.304688 -9.40625 3.550781 -9.738281 3.75 -10.03125 C 3.957031 -10.320312 4.0625 -10.664062 4.0625 -11.0625 C 4.0625 -11.40625 3.972656 -11.648438 3.796875 -11.796875 C 3.628906 -11.953125 3.410156 -12.03125 3.140625 -12.03125 C 2.941406 -12.03125 2.726562 -11.992188 2.5 -11.921875 C 2.28125 -11.859375 2.0625 -11.78125 1.84375 -11.6875 L 1.34375 -13.28125 C 1.644531 -13.476562 2.015625 -13.617188 2.453125 -13.703125 C 2.898438 -13.785156 3.289062 -13.828125 3.625 -13.828125 C 4.539062 -13.828125 5.191406 -13.585938 5.578125 -13.109375 C 5.972656 -12.640625 6.171875 -12.039062 6.171875 -11.3125 C 6.171875 -10.695312 6.066406 -10.1875 5.859375 -9.78125 C 5.648438 -9.382812 5.40625 -8.992188 5.125 -8.609375 C 4.832031 -8.191406 4.59375 -7.789062 4.40625 -7.40625 C 4.226562 -7.03125 4.140625 -6.535156 4.140625 -5.921875 L 4.140625 -4.4375 C 4.140625 -3.675781 4.265625 -3.085938 4.515625 -2.671875 C 4.765625 -2.253906 5.097656 -1.96875 5.515625 -1.8125 C 5.929688 -1.65625 6.378906 -1.578125 6.859375 -1.578125 C 8.554688 -1.578125 9.40625 -2.375 9.40625 -3.96875 L 9.40625 -7.46875 C 9.40625 -8.082031 9.265625 -8.550781 8.984375 -8.875 C 8.703125 -9.195312 8.242188 -9.359375 7.609375 -9.359375 L 7.515625 -9.359375 L 7.515625 -10.78125 L 7.640625 -10.78125 C 8.328125 -10.78125 8.8125 -10.9375 9.09375 -11.25 C 9.375 -11.570312 9.539062 -11.957031 9.59375 -12.40625 C 9.65625 -12.851562 9.6875 -13.28125 9.6875 -13.6875 L 11.90625 -13.6875 C 11.90625 -12.800781 11.796875 -12.046875 11.578125 -11.421875 C 11.367188 -10.796875 10.878906 -10.351562 10.109375 -10.09375 L 10.109375 -9.984375 C 10.554688 -9.847656 10.890625 -9.644531 11.109375 -9.375 C 11.328125 -9.113281 11.46875 -8.8125 11.53125 -8.46875 C 11.601562 -8.132812 11.640625 -7.804688 11.640625 -7.484375 L 11.640625 -3.84375 C 11.640625 -2.5625 11.238281 -1.554688 10.4375 -0.828125 C 9.632812 -0.109375 8.441406 0.25 6.859375 0.25 Z M 6.859375 0.25 "/></g></g></g><g fill="#000000" fill-opacity="0.4"><g transform="translate(525.072659, 203.662587)"><g><path d="M -12.828125 -15.859375 L -12.828125 -16.828125 L -11.015625 -17.625 L -4.296875 -17.625 L -4.296875 -19.65625 L -2.203125 -19.65625 L -2.203125 -16.828125 L -2.21875 -16.828125 L -2.21875 -15.859375 Z M -12.828125 -15.859375 "/></g></g></g><g fill="#000000" fill-opacity="0.4"><g transform="translate(524.672365, 203.612645)"><g><path d="M 4.765625 0.25 C 4.117188 0.25 3.488281 0.179688 2.875 0.046875 C 2.269531 -0.0859375 1.628906 -0.335938 0.953125 -0.703125 L 1.640625 -2.390625 C 2.015625 -2.179688 2.429688 -1.992188 2.890625 -1.828125 C 3.359375 -1.671875 3.898438 -1.59375 4.515625 -1.59375 C 5.742188 -1.59375 6.703125 -2.039062 7.390625 -2.9375 C 8.085938 -3.84375 8.4375 -5.160156 8.4375 -6.890625 C 8.4375 -8.566406 8.082031 -9.847656 7.375 -10.734375 C 6.664062 -11.628906 5.582031 -12.078125 4.125 -12.078125 C 3.59375 -12.078125 3.050781 -12.019531 2.5 -11.90625 C 1.945312 -11.789062 1.460938 -11.617188 1.046875 -11.390625 L 1.046875 -13.265625 C 1.515625 -13.515625 2.039062 -13.6875 2.625 -13.78125 C 3.207031 -13.882812 3.789062 -13.9375 4.375 -13.9375 C 5.863281 -13.9375 7.070312 -13.640625 8 -13.046875 C 8.9375 -12.453125 9.625 -11.625 10.0625 -10.5625 C 10.5 -9.507812 10.71875 -8.285156 10.71875 -6.890625 C 10.71875 -4.691406 10.21875 -2.953125 9.21875 -1.671875 C 8.226562 -0.390625 6.742188 0.25 4.765625 0.25 Z M 4.765625 0.25 "/></g></g></g><g fill="#000000" fill-opacity="0.4"><g transform="translate(537.206517, 203.612645)"><g><path d="M -12.828125 -15.859375 L -12.828125 -16.828125 L -11.015625 -17.625 L -2.21875 -17.625 L -2.21875 -15.859375 Z M -12.828125 -15.859375 "/></g></g></g><g fill="#000000" fill-opacity="0.4"><g transform="translate(536.956114, 203.612645)"><g><path d="M 6.859375 0.25 C 5.460938 0.25 4.378906 -0.0664062 3.609375 -0.703125 C 2.847656 -1.347656 2.316406 -2.222656 2.015625 -3.328125 C 1.722656 -4.441406 1.578125 -5.703125 1.578125 -7.109375 C 1.578125 -9.546875 1.921875 -11.289062 2.609375 -12.34375 C 3.296875 -13.40625 4.289062 -13.9375 5.59375 -13.9375 C 6.175781 -13.9375 6.671875 -13.832031 7.078125 -13.625 C 7.484375 -13.425781 7.769531 -13.097656 7.9375 -12.640625 L 8.046875 -12.640625 C 8.210938 -13.097656 8.507812 -13.425781 8.9375 -13.625 C 9.375 -13.832031 9.882812 -13.9375 10.46875 -13.9375 C 11.539062 -13.9375 12.375 -13.644531 12.96875 -13.0625 C 13.5625 -12.476562 13.859375 -11.601562 13.859375 -10.4375 L 13.859375 0 L 11.640625 0 L 11.640625 -10.40625 C 11.640625 -11.0625 11.492188 -11.503906 11.203125 -11.734375 C 10.921875 -11.960938 10.566406 -12.078125 10.140625 -12.078125 C 9.648438 -12.078125 9.289062 -11.960938 9.0625 -11.734375 C 8.84375 -11.503906 8.710938 -11.125 8.671875 -10.59375 L 7.265625 -10.59375 C 7.203125 -11.164062 7.023438 -11.554688 6.734375 -11.765625 C 6.453125 -11.972656 6.140625 -12.078125 5.796875 -12.078125 C 5.128906 -12.078125 4.628906 -11.6875 4.296875 -10.90625 C 3.960938 -10.125 3.796875 -8.851562 3.796875 -7.09375 C 3.796875 -5.945312 3.878906 -4.957031 4.046875 -4.125 C 4.222656 -3.300781 4.550781 -2.671875 5.03125 -2.234375 C 5.519531 -1.804688 6.222656 -1.59375 7.140625 -1.59375 C 7.472656 -1.59375 7.75 -1.609375 7.96875 -1.640625 C 8.1875 -1.679688 8.394531 -1.722656 8.59375 -1.765625 L 8.8125 -0.078125 C 8.5625 0.0351562 8.257812 0.117188 7.90625 0.171875 C 7.5625 0.222656 7.210938 0.25 6.859375 0.25 Z M 6.859375 0.25 "/></g></g></g><g fill="#545d92" fill-opacity="1"><g transform="translate(455.234174, 202.509071)"><g><path d="M 2.09375 0 L 2.09375 -13.6875 L 3.640625 -13.6875 L 4.046875 -11.515625 L 4.140625 -11.515625 C 4.421875 -12.265625 4.9375 -12.851562 5.6875 -13.28125 C 6.4375 -13.71875 7.347656 -13.9375 8.421875 -13.9375 C 9.898438 -13.9375 11.0625 -13.550781 11.90625 -12.78125 C 12.757812 -12.019531 13.1875 -10.804688 13.1875 -9.140625 L 13.1875 0 L 10.96875 0 L 10.96875 -9.015625 C 10.96875 -11.046875 9.972656 -12.0625 7.984375 -12.0625 C 7.203125 -12.0625 6.535156 -11.878906 5.984375 -11.515625 C 5.441406 -11.148438 5.023438 -10.65625 4.734375 -10.03125 C 4.453125 -9.40625 4.3125 -8.703125 4.3125 -7.921875 L 4.3125 0 Z M 2.09375 0 "/></g></g></g><g fill="#545d92" fill-opacity="1"><g transform="translate(470.365046, 202.509071)"><g><path d="M -5.390625 -15.859375 C -6.441406 -15.859375 -7.179688 -16.066406 -7.609375 -16.484375 C -8.046875 -16.910156 -8.265625 -17.390625 -8.265625 -17.921875 C -8.265625 -18.171875 -8.226562 -18.441406 -8.15625 -18.734375 C -8.082031 -19.023438 -7.984375 -19.265625 -7.859375 -19.453125 L -6 -19.125 C -6.09375 -18.925781 -6.140625 -18.671875 -6.140625 -18.359375 C -6.140625 -18.140625 -6.070312 -17.945312 -5.9375 -17.78125 C -5.8125 -17.625 -5.585938 -17.546875 -5.265625 -17.546875 L 1.046875 -17.546875 L 1.046875 -15.859375 Z M -5.390625 -15.859375 "/></g></g></g><g fill="#545d92" fill-opacity="1"><g transform="translate(470.43906, 202.509071)"><g><path d="M 1.890625 0 L 1.890625 -4.75 C 1.890625 -5.789062 2.125 -6.546875 2.59375 -7.015625 C 3.0625 -7.492188 3.65625 -7.828125 4.375 -8.015625 L 4.390625 -8.09375 L 1.640625 -9.140625 L 1.640625 -9.96875 C 1.640625 -10.644531 1.863281 -11.285156 2.3125 -11.890625 C 2.769531 -12.503906 3.414062 -13 4.25 -13.375 C 5.082031 -13.75 6.085938 -13.9375 7.265625 -13.9375 C 8.273438 -13.9375 9.210938 -13.769531 10.078125 -13.4375 C 10.953125 -13.113281 11.648438 -12.609375 12.171875 -11.921875 C 12.691406 -11.234375 12.953125 -10.332031 12.953125 -9.21875 L 12.953125 0 L 10.734375 0 L 10.734375 -8.984375 C 10.734375 -10.097656 10.390625 -10.890625 9.703125 -11.359375 C 9.023438 -11.835938 8.203125 -12.078125 7.234375 -12.078125 C 6.203125 -12.078125 5.390625 -11.863281 4.796875 -11.4375 C 4.210938 -11.019531 3.921875 -10.488281 3.921875 -9.84375 L 6.609375 -8.484375 L 6.421875 -7.296875 C 5.804688 -7.296875 5.269531 -7.085938 4.8125 -6.671875 C 4.351562 -6.265625 4.125 -5.625 4.125 -4.75 L 4.125 0 Z M 1.890625 0 "/></g></g></g><g fill="#545d92" fill-opacity="1"><g transform="translate(485.419251, 202.509071)"><g><path d="M 7.71875 0.25 C 5.65625 0.25 4.1875 -0.207031 3.3125 -1.125 C 2.445312 -2.050781 2.015625 -3.363281 2.015625 -5.0625 L 2.015625 -13.6875 L 4.25 -13.6875 L 4.25 -5.046875 C 4.25 -3.878906 4.519531 -3.007812 5.0625 -2.4375 C 5.613281 -1.875 6.5 -1.59375 7.71875 -1.59375 C 8.925781 -1.59375 9.804688 -1.875 10.359375 -2.4375 C 10.910156 -3.007812 11.1875 -3.878906 11.1875 -5.046875 L 11.1875 -5.640625 L 9.234375 -5.640625 C 8.171875 -5.640625 7.441406 -5.863281 7.046875 -6.3125 C 6.660156 -6.757812 6.46875 -7.257812 6.46875 -7.8125 C 6.46875 -8.0625 6.492188 -8.316406 6.546875 -8.578125 C 6.609375 -8.847656 6.707031 -9.078125 6.84375 -9.265625 L 8.640625 -8.9375 C 8.535156 -8.738281 8.484375 -8.5 8.484375 -8.21875 C 8.484375 -8 8.546875 -7.796875 8.671875 -7.609375 C 8.796875 -7.429688 9.019531 -7.34375 9.34375 -7.34375 L 11.1875 -7.34375 L 11.1875 -13.6875 L 13.40625 -13.6875 L 13.40625 -7.34375 L 15 -7.34375 L 15 -5.640625 L 13.40625 -5.640625 L 13.40625 -5.0625 C 13.40625 -3.363281 12.972656 -2.050781 12.109375 -1.125 C 11.242188 -0.207031 9.78125 0.25 7.71875 0.25 Z M 7.71875 0.25 "/></g></g></g><g fill="#545d92" fill-opacity="1"><g transform="translate(501.398116, 202.509071)"><g><path d="M 3.8125 -8.59375 C 2.78125 -8.59375 2.046875 -8.8125 1.609375 -9.25 C 1.179688 -9.6875 0.96875 -10.179688 0.96875 -10.734375 C 0.96875 -11.296875 1.101562 -11.78125 1.375 -12.1875 L 3.25 -11.890625 C 3.21875 -11.804688 3.179688 -11.6875 3.140625 -11.53125 C 3.097656 -11.382812 3.078125 -11.238281 3.078125 -11.09375 C 3.078125 -10.875 3.132812 -10.691406 3.25 -10.546875 C 3.363281 -10.410156 3.578125 -10.34375 3.890625 -10.34375 L 7.46875 -10.34375 L 7.46875 -8.59375 Z M 3.8125 -1.59375 C 2.78125 -1.59375 2.046875 -1.8125 1.609375 -2.25 C 1.179688 -2.695312 0.96875 -3.195312 0.96875 -3.75 C 0.96875 -4.3125 1.101562 -4.789062 1.375 -5.1875 L 3.25 -4.890625 C 3.21875 -4.804688 3.179688 -4.6875 3.140625 -4.53125 C 3.097656 -4.382812 3.078125 -4.238281 3.078125 -4.09375 C 3.078125 -3.875 3.132812 -3.691406 3.25 -3.546875 C 3.363281 -3.410156 3.578125 -3.34375 3.890625 -3.34375 L 7.46875 -3.34375 L 7.46875 -1.59375 Z M 3.8125 -1.59375 "/></g></g></g><g fill="#545d92" fill-opacity="1"><g transform="translate(509.83695, 202.509071)"><g><path d="M 6.859375 0.25 C 5.285156 0.25 4.066406 -0.125 3.203125 -0.875 C 2.347656 -1.632812 1.921875 -2.773438 1.921875 -4.296875 L 1.921875 -5.8125 C 1.921875 -6.632812 2.035156 -7.289062 2.265625 -7.78125 C 2.503906 -8.269531 2.753906 -8.6875 3.015625 -9.03125 C 3.304688 -9.40625 3.550781 -9.738281 3.75 -10.03125 C 3.957031 -10.320312 4.0625 -10.664062 4.0625 -11.0625 C 4.0625 -11.40625 3.972656 -11.648438 3.796875 -11.796875 C 3.628906 -11.953125 3.410156 -12.03125 3.140625 -12.03125 C 2.941406 -12.03125 2.726562 -11.992188 2.5 -11.921875 C 2.28125 -11.859375 2.0625 -11.78125 1.84375 -11.6875 L 1.34375 -13.28125 C 1.644531 -13.476562 2.015625 -13.617188 2.453125 -13.703125 C 2.898438 -13.785156 3.289062 -13.828125 3.625 -13.828125 C 4.539062 -13.828125 5.191406 -13.585938 5.578125 -13.109375 C 5.972656 -12.640625 6.171875 -12.039062 6.171875 -11.3125 C 6.171875 -10.695312 6.066406 -10.1875 5.859375 -9.78125 C 5.648438 -9.382812 5.40625 -8.992188 5.125 -8.609375 C 4.832031 -8.191406 4.59375 -7.789062 4.40625 -7.40625 C 4.226562 -7.03125 4.140625 -6.535156 4.140625 -5.921875 L 4.140625 -4.4375 C 4.140625 -3.675781 4.265625 -3.085938 4.515625 -2.671875 C 4.765625 -2.253906 5.097656 -1.96875 5.515625 -1.8125 C 5.929688 -1.65625 6.378906 -1.578125 6.859375 -1.578125 C 8.554688 -1.578125 9.40625 -2.375 9.40625 -3.96875 L 9.40625 -7.46875 C 9.40625 -8.082031 9.265625 -8.550781 8.984375 -8.875 C 8.703125 -9.195312 8.242188 -9.359375 7.609375 -9.359375 L 7.515625 -9.359375 L 7.515625 -10.78125 L 7.640625 -10.78125 C 8.328125 -10.78125 8.8125 -10.9375 9.09375 -11.25 C 9.375 -11.570312 9.539062 -11.957031 9.59375 -12.40625 C 9.65625 -12.851562 9.6875 -13.28125 9.6875 -13.6875 L 11.90625 -13.6875 C 11.90625 -12.800781 11.796875 -12.046875 11.578125 -11.421875 C 11.367188 -10.796875 10.878906 -10.351562 10.109375 -10.09375 L 10.109375 -9.984375 C 10.554688 -9.847656 10.890625 -9.644531 11.109375 -9.375 C 11.328125 -9.113281 11.46875 -8.8125 11.53125 -8.46875 C 11.601562 -8.132812 11.640625 -7.804688 11.640625 -7.484375 L 11.640625 -3.84375 C 11.640625 -2.5625 11.238281 -1.554688 10.4375 -0.828125 C 9.632812 -0.109375 8.441406 0.25 6.859375 0.25 Z M 6.859375 0.25 "/></g></g></g><g fill="#545d92" fill-opacity="1"><g transform="translate(523.96908, 202.559012)"><g><path d="M -12.828125 -15.859375 L -12.828125 -16.828125 L -11.015625 -17.625 L -4.296875 -17.625 L -4.296875 -19.65625 L -2.203125 -19.65625 L -2.203125 -16.828125 L -2.21875 -16.828125 L -2.21875 -15.859375 Z M -12.828125 -15.859375 "/></g></g></g><g fill="#545d92" fill-opacity="1"><g transform="translate(523.568785, 202.509071)"><g><path d="M 4.765625 0.25 C 4.117188 0.25 3.488281 0.179688 2.875 0.046875 C 2.269531 -0.0859375 1.628906 -0.335938 0.953125 -0.703125 L 1.640625 -2.390625 C 2.015625 -2.179688 2.429688 -1.992188 2.890625 -1.828125 C 3.359375 -1.671875 3.898438 -1.59375 4.515625 -1.59375 C 5.742188 -1.59375 6.703125 -2.039062 7.390625 -2.9375 C 8.085938 -3.84375 8.4375 -5.160156 8.4375 -6.890625 C 8.4375 -8.566406 8.082031 -9.847656 7.375 -10.734375 C 6.664062 -11.628906 5.582031 -12.078125 4.125 -12.078125 C 3.59375 -12.078125 3.050781 -12.019531 2.5 -11.90625 C 1.945312 -11.789062 1.460938 -11.617188 1.046875 -11.390625 L 1.046875 -13.265625 C 1.515625 -13.515625 2.039062 -13.6875 2.625 -13.78125 C 3.207031 -13.882812 3.789062 -13.9375 4.375 -13.9375 C 5.863281 -13.9375 7.070312 -13.640625 8 -13.046875 C 8.9375 -12.453125 9.625 -11.625 10.0625 -10.5625 C 10.5 -9.507812 10.71875 -8.285156 10.71875 -6.890625 C 10.71875 -4.691406 10.21875 -2.953125 9.21875 -1.671875 C 8.226562 -0.390625 6.742188 0.25 4.765625 0.25 Z M 4.765625 0.25 "/></g></g></g><g fill="#545d92" fill-opacity="1"><g transform="translate(536.102937, 202.509071)"><g><path d="M -12.828125 -15.859375 L -12.828125 -16.828125 L -11.015625 -17.625 L -2.21875 -17.625 L -2.21875 -15.859375 Z M -12.828125 -15.859375 "/></g></g></g><g fill="#545d92" fill-opacity="1"><g transform="translate(535.852535, 202.509071)"><g><path d="M 6.859375 0.25 C 5.460938 0.25 4.378906 -0.0664062 3.609375 -0.703125 C 2.847656 -1.347656 2.316406 -2.222656 2.015625 -3.328125 C 1.722656 -4.441406 1.578125 -5.703125 1.578125 -7.109375 C 1.578125 -9.546875 1.921875 -11.289062 2.609375 -12.34375 C 3.296875 -13.40625 4.289062 -13.9375 5.59375 -13.9375 C 6.175781 -13.9375 6.671875 -13.832031 7.078125 -13.625 C 7.484375 -13.425781 7.769531 -13.097656 7.9375 -12.640625 L 8.046875 -12.640625 C 8.210938 -13.097656 8.507812 -13.425781 8.9375 -13.625 C 9.375 -13.832031 9.882812 -13.9375 10.46875 -13.9375 C 11.539062 -13.9375 12.375 -13.644531 12.96875 -13.0625 C 13.5625 -12.476562 13.859375 -11.601562 13.859375 -10.4375 L 13.859375 0 L 11.640625 0 L 11.640625 -10.40625 C 11.640625 -11.0625 11.492188 -11.503906 11.203125 -11.734375 C 10.921875 -11.960938 10.566406 -12.078125 10.140625 -12.078125 C 9.648438 -12.078125 9.289062 -11.960938 9.0625 -11.734375 C 8.84375 -11.503906 8.710938 -11.125 8.671875 -10.59375 L 7.265625 -10.59375 C 7.203125 -11.164062 7.023438 -11.554688 6.734375 -11.765625 C 6.453125 -11.972656 6.140625 -12.078125 5.796875 -12.078125 C 5.128906 -12.078125 4.628906 -11.6875 4.296875 -10.90625 C 3.960938 -10.125 3.796875 -8.851562 3.796875 -7.09375 C 3.796875 -5.945312 3.878906 -4.957031 4.046875 -4.125 C 4.222656 -3.300781 4.550781 -2.671875 5.03125 -2.234375 C 5.519531 -1.804688 6.222656 -1.59375 7.140625 -1.59375 C 7.472656 -1.59375 7.75 -1.609375 7.96875 -1.640625 C 8.1875 -1.679688 8.394531 -1.722656 8.59375 -1.765625 L 8.8125 -0.078125 C 8.5625 0.0351562 8.257812 0.117188 7.90625 0.171875 C 7.5625 0.222656 7.210938 0.25 6.859375 0.25 Z M 6.859375 0.25 "/></g></g></g><g fill="#000000" fill-opacity="0.4"><g transform="translate(75.669407, 342.016581)"><g><path d="M 2.015625 0 L 2.015625 -8.734375 C 2.015625 -10.398438 2.457031 -11.679688 3.34375 -12.578125 C 4.238281 -13.484375 5.679688 -13.9375 7.671875 -13.9375 C 9.648438 -13.9375 11.082031 -13.484375 11.96875 -12.578125 C 12.863281 -11.679688 13.3125 -10.398438 13.3125 -8.734375 L 13.3125 0 L 11.09375 0 L 11.09375 -8.734375 C 11.09375 -10.960938 9.941406 -12.078125 7.640625 -12.078125 C 5.378906 -12.078125 4.25 -10.960938 4.25 -8.734375 L 4.25 -5.96875 L 4.3125 -5.9375 C 4.6875 -6.59375 5.140625 -7.023438 5.671875 -7.234375 C 6.203125 -7.441406 6.953125 -7.546875 7.921875 -7.546875 L 8.734375 -7.546875 L 8.734375 -5.71875 L 7.921875 -5.71875 C 6.898438 -5.71875 6.125 -5.578125 5.59375 -5.296875 C 5.070312 -5.015625 4.71875 -4.644531 4.53125 -4.1875 C 4.34375 -3.726562 4.25 -3.210938 4.25 -2.640625 L 4.25 0 Z M 2.015625 0 "/></g></g></g><g fill="#000000" fill-opacity="0.4"><g transform="translate(90.999129, 342.016581)"><g><path d="M 4.765625 0.25 C 4.117188 0.25 3.488281 0.179688 2.875 0.046875 C 2.269531 -0.0859375 1.628906 -0.335938 0.953125 -0.703125 L 1.640625 -2.390625 C 2.015625 -2.179688 2.429688 -1.992188 2.890625 -1.828125 C 3.359375 -1.671875 3.898438 -1.59375 4.515625 -1.59375 C 5.742188 -1.59375 6.703125 -2.039062 7.390625 -2.9375 C 8.085938 -3.84375 8.4375 -5.160156 8.4375 -6.890625 C 8.4375 -8.566406 8.082031 -9.847656 7.375 -10.734375 C 6.664062 -11.628906 5.582031 -12.078125 4.125 -12.078125 C 3.59375 -12.078125 3.050781 -12.019531 2.5 -11.90625 C 1.945312 -11.789062 1.460938 -11.617188 1.046875 -11.390625 L 1.046875 -13.265625 C 1.515625 -13.515625 2.039062 -13.6875 2.625 -13.78125 C 3.207031 -13.882812 3.789062 -13.9375 4.375 -13.9375 C 5.863281 -13.9375 7.070312 -13.640625 8 -13.046875 C 8.9375 -12.453125 9.625 -11.625 10.0625 -10.5625 C 10.5 -9.507812 10.71875 -8.285156 10.71875 -6.890625 C 10.71875 -4.691406 10.21875 -2.953125 9.21875 -1.671875 C 8.226562 -0.390625 6.742188 0.25 4.765625 0.25 Z M 4.765625 0.25 "/></g></g></g><g fill="#000000" fill-opacity="0.4"><g transform="translate(103.282879, 342.016581)"><g><path d="M 5.890625 0 L 5.890625 -9.71875 C 5.890625 -10.53125 5.703125 -11.125 5.328125 -11.5 C 4.953125 -11.882812 4.328125 -12.078125 3.453125 -12.078125 C 2.847656 -12.078125 2.28125 -11.992188 1.75 -11.828125 C 1.226562 -11.660156 0.726562 -11.445312 0.25 -11.1875 L 0.25 -13.1875 C 0.582031 -13.351562 1.054688 -13.519531 1.671875 -13.6875 C 2.285156 -13.851562 3.019531 -13.9375 3.875 -13.9375 C 5.164062 -13.9375 6.191406 -13.644531 6.953125 -13.0625 C 7.722656 -12.476562 8.109375 -11.46875 8.109375 -10.03125 L 8.109375 0 Z M 5.890625 0 "/></g></g></g><g fill="#000000" fill-opacity="0.4"><g transform="translate(113.41947, 342.016581)"><g><path d="M 8.609375 0.25 C 7.523438 0.25 6.597656 0.0351562 5.828125 -0.390625 C 5.066406 -0.816406 4.546875 -1.410156 4.265625 -2.171875 L 4.171875 -2.171875 L 4.046875 0 L 2.21875 0 L 2.21875 -13.6875 L 4.4375 -13.6875 L 4.4375 -5.765625 C 4.4375 -4.503906 4.757812 -3.5 5.40625 -2.75 C 6.0625 -2 6.984375 -1.625 8.171875 -1.625 C 10.117188 -1.625 11.09375 -2.640625 11.09375 -4.671875 L 11.09375 -13.6875 L 13.3125 -13.6875 L 13.3125 -4.515625 C 13.3125 -2.867188 12.898438 -1.660156 12.078125 -0.890625 C 11.253906 -0.128906 10.097656 0.25 8.609375 0.25 Z M 8.609375 0.25 "/></g></g></g><g fill="#000000" fill-opacity="0.4"><g transform="translate(128.749192, 342.016581)"><g><path d="M 2.21875 0 L 2.21875 -13.6875 L 4.4375 -13.6875 L 4.4375 -7.765625 L 4.515625 -7.765625 L 10.21875 -13.6875 L 12.8125 -13.6875 L 12.8125 -13.609375 L 8.78125 -9.53125 C 10.132812 -9.414062 11.164062 -8.945312 11.875 -8.125 C 12.582031 -7.300781 12.9375 -6.21875 12.9375 -4.875 L 12.9375 0 L 10.71875 0 L 10.71875 -4.8125 C 10.71875 -5.75 10.445312 -6.488281 9.90625 -7.03125 C 9.363281 -7.582031 8.457031 -7.882812 7.1875 -7.9375 L 4.4375 -5.140625 L 4.4375 0 Z M 2.21875 0 "/></g></g></g><g fill="#000000" fill-opacity="0.4"><g transform="translate(143.404806, 342.016581)"><g><path d="M 5.75 0.25 C 4.28125 0.25 3.15625 -0.0820312 2.375 -0.75 C 1.601562 -1.425781 1.21875 -2.398438 1.21875 -3.671875 C 1.21875 -5.054688 1.722656 -6.117188 2.734375 -6.859375 C 3.742188 -7.609375 5.378906 -8.050781 7.640625 -8.1875 L 10.03125 -8.34375 L 10.03125 -9.109375 C 10.03125 -10.191406 9.785156 -10.960938 9.296875 -11.421875 C 8.804688 -11.878906 7.988281 -12.109375 6.84375 -12.109375 C 6.007812 -12.109375 5.207031 -11.992188 4.4375 -11.765625 C 3.675781 -11.546875 2.960938 -11.238281 2.296875 -10.84375 L 2.296875 -12.90625 C 2.765625 -13.15625 3.414062 -13.390625 4.25 -13.609375 C 5.082031 -13.828125 6.015625 -13.9375 7.046875 -13.9375 C 8.785156 -13.9375 10.082031 -13.554688 10.9375 -12.796875 C 11.800781 -12.035156 12.234375 -10.847656 12.234375 -9.234375 L 12.234375 0 L 10.03125 0 L 10.03125 -6.484375 L 7.9375 -6.34375 C 6.238281 -6.226562 5.066406 -5.960938 4.421875 -5.546875 C 3.785156 -5.128906 3.46875 -4.519531 3.46875 -3.71875 C 3.46875 -2.96875 3.703125 -2.414062 4.171875 -2.0625 C 4.648438 -1.71875 5.316406 -1.546875 6.171875 -1.546875 C 6.710938 -1.546875 7.191406 -1.617188 7.609375 -1.765625 L 7.96875 -0.09375 C 7.644531 0.03125 7.296875 0.117188 6.921875 0.171875 C 6.546875 0.222656 6.15625 0.25 5.75 0.25 Z M 5.75 0.25 "/></g></g></g><g fill="#000000" fill-opacity="0.4"><g transform="translate(157.660948, 342.016581)"><g><path d="M 4.265625 0 L 0 -13.6875 L 2.25 -13.6875 L 5.9375 -1.921875 L 6.25 -1.921875 C 6.644531 -1.921875 7.03125 -2.015625 7.40625 -2.203125 C 7.789062 -2.398438 8.117188 -2.648438 8.390625 -2.953125 C 8.890625 -3.492188 9.253906 -4.1875 9.484375 -5.03125 C 9.722656 -5.875 9.84375 -6.703125 9.84375 -7.515625 C 9.84375 -8.898438 9.53125 -9.984375 8.90625 -10.765625 C 8.28125 -11.554688 7.414062 -11.953125 6.3125 -11.953125 C 5.863281 -11.953125 5.484375 -11.894531 5.171875 -11.78125 L 4.625 -13.5625 C 4.96875 -13.65625 5.289062 -13.71875 5.59375 -13.75 C 5.90625 -13.789062 6.1875 -13.8125 6.4375 -13.8125 C 8.070312 -13.8125 9.378906 -13.335938 10.359375 -12.390625 C 10.941406 -11.816406 11.367188 -11.101562 11.640625 -10.25 C 11.921875 -9.40625 12.0625 -8.46875 12.0625 -7.4375 C 12.0625 -6.144531 11.859375 -4.992188 11.453125 -3.984375 C 11.054688 -2.972656 10.5625 -2.171875 9.96875 -1.578125 C 9.476562 -1.085938 8.882812 -0.703125 8.1875 -0.421875 C 7.488281 -0.140625 6.597656 0 5.515625 0 Z M 4.265625 0 "/></g></g></g><g fill="#000000" fill-opacity="0.4"><g transform="translate(171.068218, 342.016581)"><g><path d="M 4.890625 0.25 C 4.421875 0.25 3.976562 0.171875 3.5625 0.015625 C 3.15625 -0.128906 2.816406 -0.390625 2.546875 -0.765625 C 2.273438 -1.148438 2.140625 -1.6875 2.140625 -2.375 L 2.140625 -12.140625 C 2.140625 -12.597656 2.179688 -12.972656 2.265625 -13.265625 C 2.347656 -13.554688 2.484375 -13.84375 2.671875 -14.125 C 2.867188 -14.414062 3.144531 -14.773438 3.5 -15.203125 C 3.914062 -15.722656 4.222656 -16.148438 4.421875 -16.484375 C 4.617188 -16.816406 4.71875 -17.179688 4.71875 -17.578125 C 4.71875 -18.546875 4.128906 -19.03125 2.953125 -19.03125 C 2.410156 -19.03125 1.929688 -18.953125 1.515625 -18.796875 C 1.109375 -18.648438 0.757812 -18.503906 0.46875 -18.359375 L 0.46875 -20.25 C 0.6875 -20.363281 1.035156 -20.488281 1.515625 -20.625 C 2.003906 -20.757812 2.570312 -20.828125 3.21875 -20.828125 C 4.320312 -20.828125 5.207031 -20.578125 5.875 -20.078125 C 6.550781 -19.585938 6.890625 -18.835938 6.890625 -17.828125 C 6.890625 -17.160156 6.765625 -16.578125 6.515625 -16.078125 C 6.265625 -15.578125 5.972656 -15.128906 5.640625 -14.734375 C 5.335938 -14.367188 5.09375 -14.0625 4.90625 -13.8125 C 4.726562 -13.570312 4.59375 -13.320312 4.5 -13.0625 C 4.414062 -12.8125 4.375 -12.484375 4.375 -12.078125 L 4.375 -2.640625 C 4.375 -2.265625 4.457031 -1.992188 4.625 -1.828125 C 4.789062 -1.660156 5.046875 -1.578125 5.390625 -1.578125 C 5.578125 -1.578125 5.753906 -1.59375 5.921875 -1.625 C 6.085938 -1.65625 6.234375 -1.695312 6.359375 -1.75 L 6.671875 -0.125 C 6.347656 0.0195312 6.035156 0.117188 5.734375 0.171875 C 5.441406 0.222656 5.160156 0.25 4.890625 0.25 Z M 4.890625 0.25 "/></g></g></g><g fill="#000000" fill-opacity="0.4"><g transform="translate(178.283672, 342.016581)"><g><path d="M 2.21875 0 L 2.21875 -13.6875 L 4.4375 -13.6875 L 4.4375 -7.765625 L 4.515625 -7.765625 L 10.21875 -13.6875 L 12.8125 -13.6875 L 12.8125 -13.609375 L 8.78125 -9.53125 C 10.132812 -9.414062 11.164062 -8.945312 11.875 -8.125 C 12.582031 -7.300781 12.9375 -6.21875 12.9375 -4.875 L 12.9375 0 L 10.71875 0 L 10.71875 -4.8125 C 10.71875 -5.75 10.445312 -6.488281 9.90625 -7.03125 C 9.363281 -7.582031 8.457031 -7.882812 7.1875 -7.9375 L 4.4375 -5.140625 L 4.4375 0 Z M 2.21875 0 "/></g></g></g><g fill="#000000" fill-opacity="0.4"><g transform="translate(192.939286, 342.016581)"><g><path d="M 5.75 0.25 C 4.28125 0.25 3.15625 -0.0820312 2.375 -0.75 C 1.601562 -1.425781 1.21875 -2.398438 1.21875 -3.671875 C 1.21875 -5.054688 1.722656 -6.117188 2.734375 -6.859375 C 3.742188 -7.609375 5.378906 -8.050781 7.640625 -8.1875 L 10.03125 -8.34375 L 10.03125 -9.109375 C 10.03125 -10.191406 9.785156 -10.960938 9.296875 -11.421875 C 8.804688 -11.878906 7.988281 -12.109375 6.84375 -12.109375 C 6.007812 -12.109375 5.207031 -11.992188 4.4375 -11.765625 C 3.675781 -11.546875 2.960938 -11.238281 2.296875 -10.84375 L 2.296875 -12.90625 C 2.765625 -13.15625 3.414062 -13.390625 4.25 -13.609375 C 5.082031 -13.828125 6.015625 -13.9375 7.046875 -13.9375 C 8.785156 -13.9375 10.082031 -13.554688 10.9375 -12.796875 C 11.800781 -12.035156 12.234375 -10.847656 12.234375 -9.234375 L 12.234375 0 L 10.03125 0 L 10.03125 -6.484375 L 7.9375 -6.34375 C 6.238281 -6.226562 5.066406 -5.960938 4.421875 -5.546875 C 3.785156 -5.128906 3.46875 -4.519531 3.46875 -3.71875 C 3.46875 -2.96875 3.703125 -2.414062 4.171875 -2.0625 C 4.648438 -1.71875 5.316406 -1.546875 6.171875 -1.546875 C 6.710938 -1.546875 7.191406 -1.617188 7.609375 -1.765625 L 7.96875 -0.09375 C 7.644531 0.03125 7.296875 0.117188 6.921875 0.171875 C 6.546875 0.222656 6.15625 0.25 5.75 0.25 Z M 5.75 0.25 "/></g></g></g><g fill="#bd0870" fill-opacity="1"><g transform="translate(74.565833, 340.913021)"><g><path d="M 2.015625 0 L 2.015625 -8.734375 C 2.015625 -10.398438 2.457031 -11.679688 3.34375 -12.578125 C 4.238281 -13.484375 5.679688 -13.9375 7.671875 -13.9375 C 9.648438 -13.9375 11.082031 -13.484375 11.96875 -12.578125 C 12.863281 -11.679688 13.3125 -10.398438 13.3125 -8.734375 L 13.3125 0 L 11.09375 0 L 11.09375 -8.734375 C 11.09375 -10.960938 9.941406 -12.078125 7.640625 -12.078125 C 5.378906 -12.078125 4.25 -10.960938 4.25 -8.734375 L 4.25 -5.96875 L 4.3125 -5.9375 C 4.6875 -6.59375 5.140625 -7.023438 5.671875 -7.234375 C 6.203125 -7.441406 6.953125 -7.546875 7.921875 -7.546875 L 8.734375 -7.546875 L 8.734375 -5.71875 L 7.921875 -5.71875 C 6.898438 -5.71875 6.125 -5.578125 5.59375 -5.296875 C 5.070312 -5.015625 4.71875 -4.644531 4.53125 -4.1875 C 4.34375 -3.726562 4.25 -3.210938 4.25 -2.640625 L 4.25 0 Z M 2.015625 0 "/></g></g></g><g fill="#bd0870" fill-opacity="1"><g transform="translate(89.895555, 340.913021)"><g><path d="M 4.765625 0.25 C 4.117188 0.25 3.488281 0.179688 2.875 0.046875 C 2.269531 -0.0859375 1.628906 -0.335938 0.953125 -0.703125 L 1.640625 -2.390625 C 2.015625 -2.179688 2.429688 -1.992188 2.890625 -1.828125 C 3.359375 -1.671875 3.898438 -1.59375 4.515625 -1.59375 C 5.742188 -1.59375 6.703125 -2.039062 7.390625 -2.9375 C 8.085938 -3.84375 8.4375 -5.160156 8.4375 -6.890625 C 8.4375 -8.566406 8.082031 -9.847656 7.375 -10.734375 C 6.664062 -11.628906 5.582031 -12.078125 4.125 -12.078125 C 3.59375 -12.078125 3.050781 -12.019531 2.5 -11.90625 C 1.945312 -11.789062 1.460938 -11.617188 1.046875 -11.390625 L 1.046875 -13.265625 C 1.515625 -13.515625 2.039062 -13.6875 2.625 -13.78125 C 3.207031 -13.882812 3.789062 -13.9375 4.375 -13.9375 C 5.863281 -13.9375 7.070312 -13.640625 8 -13.046875 C 8.9375 -12.453125 9.625 -11.625 10.0625 -10.5625 C 10.5 -9.507812 10.71875 -8.285156 10.71875 -6.890625 C 10.71875 -4.691406 10.21875 -2.953125 9.21875 -1.671875 C 8.226562 -0.390625 6.742188 0.25 4.765625 0.25 Z M 4.765625 0.25 "/></g></g></g><g fill="#bd0870" fill-opacity="1"><g transform="translate(102.179304, 340.913021)"><g><path d="M 5.890625 0 L 5.890625 -9.71875 C 5.890625 -10.53125 5.703125 -11.125 5.328125 -11.5 C 4.953125 -11.882812 4.328125 -12.078125 3.453125 -12.078125 C 2.847656 -12.078125 2.28125 -11.992188 1.75 -11.828125 C 1.226562 -11.660156 0.726562 -11.445312 0.25 -11.1875 L 0.25 -13.1875 C 0.582031 -13.351562 1.054688 -13.519531 1.671875 -13.6875 C 2.285156 -13.851562 3.019531 -13.9375 3.875 -13.9375 C 5.164062 -13.9375 6.191406 -13.644531 6.953125 -13.0625 C 7.722656 -12.476562 8.109375 -11.46875 8.109375 -10.03125 L 8.109375 0 Z M 5.890625 0 "/></g></g></g><g fill="#bd0870" fill-opacity="1"><g transform="translate(112.315895, 340.913021)"><g><path d="M 8.609375 0.25 C 7.523438 0.25 6.597656 0.0351562 5.828125 -0.390625 C 5.066406 -0.816406 4.546875 -1.410156 4.265625 -2.171875 L 4.171875 -2.171875 L 4.046875 0 L 2.21875 0 L 2.21875 -13.6875 L 4.4375 -13.6875 L 4.4375 -5.765625 C 4.4375 -4.503906 4.757812 -3.5 5.40625 -2.75 C 6.0625 -2 6.984375 -1.625 8.171875 -1.625 C 10.117188 -1.625 11.09375 -2.640625 11.09375 -4.671875 L 11.09375 -13.6875 L 13.3125 -13.6875 L 13.3125 -4.515625 C 13.3125 -2.867188 12.898438 -1.660156 12.078125 -0.890625 C 11.253906 -0.128906 10.097656 0.25 8.609375 0.25 Z M 8.609375 0.25 "/></g></g></g><g fill="#bd0870" fill-opacity="1"><g transform="translate(127.645617, 340.913021)"><g><path d="M 2.21875 0 L 2.21875 -13.6875 L 4.4375 -13.6875 L 4.4375 -7.765625 L 4.515625 -7.765625 L 10.21875 -13.6875 L 12.8125 -13.6875 L 12.8125 -13.609375 L 8.78125 -9.53125 C 10.132812 -9.414062 11.164062 -8.945312 11.875 -8.125 C 12.582031 -7.300781 12.9375 -6.21875 12.9375 -4.875 L 12.9375 0 L 10.71875 0 L 10.71875 -4.8125 C 10.71875 -5.75 10.445312 -6.488281 9.90625 -7.03125 C 9.363281 -7.582031 8.457031 -7.882812 7.1875 -7.9375 L 4.4375 -5.140625 L 4.4375 0 Z M 2.21875 0 "/></g></g></g><g fill="#bd0870" fill-opacity="1"><g transform="translate(142.301231, 340.913021)"><g><path d="M 5.75 0.25 C 4.28125 0.25 3.15625 -0.0820312 2.375 -0.75 C 1.601562 -1.425781 1.21875 -2.398438 1.21875 -3.671875 C 1.21875 -5.054688 1.722656 -6.117188 2.734375 -6.859375 C 3.742188 -7.609375 5.378906 -8.050781 7.640625 -8.1875 L 10.03125 -8.34375 L 10.03125 -9.109375 C 10.03125 -10.191406 9.785156 -10.960938 9.296875 -11.421875 C 8.804688 -11.878906 7.988281 -12.109375 6.84375 -12.109375 C 6.007812 -12.109375 5.207031 -11.992188 4.4375 -11.765625 C 3.675781 -11.546875 2.960938 -11.238281 2.296875 -10.84375 L 2.296875 -12.90625 C 2.765625 -13.15625 3.414062 -13.390625 4.25 -13.609375 C 5.082031 -13.828125 6.015625 -13.9375 7.046875 -13.9375 C 8.785156 -13.9375 10.082031 -13.554688 10.9375 -12.796875 C 11.800781 -12.035156 12.234375 -10.847656 12.234375 -9.234375 L 12.234375 0 L 10.03125 0 L 10.03125 -6.484375 L 7.9375 -6.34375 C 6.238281 -6.226562 5.066406 -5.960938 4.421875 -5.546875 C 3.785156 -5.128906 3.46875 -4.519531 3.46875 -3.71875 C 3.46875 -2.96875 3.703125 -2.414062 4.171875 -2.0625 C 4.648438 -1.71875 5.316406 -1.546875 6.171875 -1.546875 C 6.710938 -1.546875 7.191406 -1.617188 7.609375 -1.765625 L 7.96875 -0.09375 C 7.644531 0.03125 7.296875 0.117188 6.921875 0.171875 C 6.546875 0.222656 6.15625 0.25 5.75 0.25 Z M 5.75 0.25 "/></g></g></g><g fill="#bd0870" fill-opacity="1"><g transform="translate(156.557374, 340.913021)"><g><path d="M 4.265625 0 L 0 -13.6875 L 2.25 -13.6875 L 5.9375 -1.921875 L 6.25 -1.921875 C 6.644531 -1.921875 7.03125 -2.015625 7.40625 -2.203125 C 7.789062 -2.398438 8.117188 -2.648438 8.390625 -2.953125 C 8.890625 -3.492188 9.253906 -4.1875 9.484375 -5.03125 C 9.722656 -5.875 9.84375 -6.703125 9.84375 -7.515625 C 9.84375 -8.898438 9.53125 -9.984375 8.90625 -10.765625 C 8.28125 -11.554688 7.414062 -11.953125 6.3125 -11.953125 C 5.863281 -11.953125 5.484375 -11.894531 5.171875 -11.78125 L 4.625 -13.5625 C 4.96875 -13.65625 5.289062 -13.71875 5.59375 -13.75 C 5.90625 -13.789062 6.1875 -13.8125 6.4375 -13.8125 C 8.070312 -13.8125 9.378906 -13.335938 10.359375 -12.390625 C 10.941406 -11.816406 11.367188 -11.101562 11.640625 -10.25 C 11.921875 -9.40625 12.0625 -8.46875 12.0625 -7.4375 C 12.0625 -6.144531 11.859375 -4.992188 11.453125 -3.984375 C 11.054688 -2.972656 10.5625 -2.171875 9.96875 -1.578125 C 9.476562 -1.085938 8.882812 -0.703125 8.1875 -0.421875 C 7.488281 -0.140625 6.597656 0 5.515625 0 Z M 4.265625 0 "/></g></g></g><g fill="#bd0870" fill-opacity="1"><g transform="translate(169.964643, 340.913021)"><g><path d="M 4.890625 0.25 C 4.421875 0.25 3.976562 0.171875 3.5625 0.015625 C 3.15625 -0.128906 2.816406 -0.390625 2.546875 -0.765625 C 2.273438 -1.148438 2.140625 -1.6875 2.140625 -2.375 L 2.140625 -12.140625 C 2.140625 -12.597656 2.179688 -12.972656 2.265625 -13.265625 C 2.347656 -13.554688 2.484375 -13.84375 2.671875 -14.125 C 2.867188 -14.414062 3.144531 -14.773438 3.5 -15.203125 C 3.914062 -15.722656 4.222656 -16.148438 4.421875 -16.484375 C 4.617188 -16.816406 4.71875 -17.179688 4.71875 -17.578125 C 4.71875 -18.546875 4.128906 -19.03125 2.953125 -19.03125 C 2.410156 -19.03125 1.929688 -18.953125 1.515625 -18.796875 C 1.109375 -18.648438 0.757812 -18.503906 0.46875 -18.359375 L 0.46875 -20.25 C 0.6875 -20.363281 1.035156 -20.488281 1.515625 -20.625 C 2.003906 -20.757812 2.570312 -20.828125 3.21875 -20.828125 C 4.320312 -20.828125 5.207031 -20.578125 5.875 -20.078125 C 6.550781 -19.585938 6.890625 -18.835938 6.890625 -17.828125 C 6.890625 -17.160156 6.765625 -16.578125 6.515625 -16.078125 C 6.265625 -15.578125 5.972656 -15.128906 5.640625 -14.734375 C 5.335938 -14.367188 5.09375 -14.0625 4.90625 -13.8125 C 4.726562 -13.570312 4.59375 -13.320312 4.5 -13.0625 C 4.414062 -12.8125 4.375 -12.484375 4.375 -12.078125 L 4.375 -2.640625 C 4.375 -2.265625 4.457031 -1.992188 4.625 -1.828125 C 4.789062 -1.660156 5.046875 -1.578125 5.390625 -1.578125 C 5.578125 -1.578125 5.753906 -1.59375 5.921875 -1.625 C 6.085938 -1.65625 6.234375 -1.695312 6.359375 -1.75 L 6.671875 -0.125 C 6.347656 0.0195312 6.035156 0.117188 5.734375 0.171875 C 5.441406 0.222656 5.160156 0.25 4.890625 0.25 Z M 4.890625 0.25 "/></g></g></g><g fill="#bd0870" fill-opacity="1"><g transform="translate(177.180097, 340.913021)"><g><path d="M 2.21875 0 L 2.21875 -13.6875 L 4.4375 -13.6875 L 4.4375 -7.765625 L 4.515625 -7.765625 L 10.21875 -13.6875 L 12.8125 -13.6875 L 12.8125 -13.609375 L 8.78125 -9.53125 C 10.132812 -9.414062 11.164062 -8.945312 11.875 -8.125 C 12.582031 -7.300781 12.9375 -6.21875 12.9375 -4.875 L 12.9375 0 L 10.71875 0 L 10.71875 -4.8125 C 10.71875 -5.75 10.445312 -6.488281 9.90625 -7.03125 C 9.363281 -7.582031 8.457031 -7.882812 7.1875 -7.9375 L 4.4375 -5.140625 L 4.4375 0 Z M 2.21875 0 "/></g></g></g><g fill="#bd0870" fill-opacity="1"><g transform="translate(191.835712, 340.913021)"><g><path d="M 5.75 0.25 C 4.28125 0.25 3.15625 -0.0820312 2.375 -0.75 C 1.601562 -1.425781 1.21875 -2.398438 1.21875 -3.671875 C 1.21875 -5.054688 1.722656 -6.117188 2.734375 -6.859375 C 3.742188 -7.609375 5.378906 -8.050781 7.640625 -8.1875 L 10.03125 -8.34375 L 10.03125 -9.109375 C 10.03125 -10.191406 9.785156 -10.960938 9.296875 -11.421875 C 8.804688 -11.878906 7.988281 -12.109375 6.84375 -12.109375 C 6.007812 -12.109375 5.207031 -11.992188 4.4375 -11.765625 C 3.675781 -11.546875 2.960938 -11.238281 2.296875 -10.84375 L 2.296875 -12.90625 C 2.765625 -13.15625 3.414062 -13.390625 4.25 -13.609375 C 5.082031 -13.828125 6.015625 -13.9375 7.046875 -13.9375 C 8.785156 -13.9375 10.082031 -13.554688 10.9375 -12.796875 C 11.800781 -12.035156 12.234375 -10.847656 12.234375 -9.234375 L 12.234375 0 L 10.03125 0 L 10.03125 -6.484375 L 7.9375 -6.34375 C 6.238281 -6.226562 5.066406 -5.960938 4.421875 -5.546875 C 3.785156 -5.128906 3.46875 -4.519531 3.46875 -3.71875 C 3.46875 -2.96875 3.703125 -2.414062 4.171875 -2.0625 C 4.648438 -1.71875 5.316406 -1.546875 6.171875 -1.546875 C 6.710938 -1.546875 7.191406 -1.617188 7.609375 -1.765625 L 7.96875 -0.09375 C 7.644531 0.03125 7.296875 0.117188 6.921875 0.171875 C 6.546875 0.222656 6.15625 0.25 5.75 0.25 Z M 5.75 0.25 "/></g></g></g></svg>